<ttFont>
<head>
    <!-- Most of this table will be recalculated by the compiler -->
    <tableVersion value="1.0"/>
    <fontRevision value="2.01"/>
    <checkSumAdjustment value="0xd2ae8172"/>
    <magicNumber value="0x5f0f3cf5"/>
    <flags value="00000000 00000011"/>
    <unitsPerEm value="1000"/>
    <created value="Wed Feb  7 19:17:56 2018"/>
    <modified value="Wed Feb  7 19:17:56 2018"/>
    <xMin value="-403"/>
    <yMin value="-581"/>
    <xMax value="1742"/>
    <yMax value="892"/>
    <macStyle value="00000000 00000000"/>
    <lowestRecPPEM value="3"/>
    <fontDirectionHint value="2"/>
    <indexToLocFormat value="0"/>
    <glyphDataFormat value="0"/>
  </head>
          <CharString index="0">
            -107 callgsubr
            52 return
          </CharString>
          <CharString index="1">
            1 12 -28 -46 hvcurveto
            -178 vlineto
            -43 -17 -25 -58 -58 -17 26 42 vhcurveto
            185 235 callsubr
            return
          </CharString>
          <CharString index="2" raw="1">
            2eba580a f75f07b6 99adcecc 840abff7
            451d0b   
          </CharString>
          <CharString index="3">
            -95 callsubr
            134 -52 -314 vlineto
            -96 67 -45 98 58 44 10 6 23 vhcurveto
            return
          </CharString>
          <CharString index="4">
            -101 callsubr
            80 52 34 83 hvcurveto
            return
          </CharString>
          <CharString index="5">
            -103 callsubr
            -60 146 rmoveto
            -32 callsubr
            return
          </CharString>
          <CharString index="6">
            -97 callgsubr
            81 vlineto
            return
          </CharString>
          <CharString index="7">
            30 60 496 rmoveto
            10 30 51 10 47 hhcurveto
            90 21 -31 -54 hvcurveto
            -92 vlineto
            -145 -41 rlineto
            -84 -24 -36 -45 -66 vvcurveto
            -32 vlineto
            -83 41 -52 98 68 29 20 24 29 vhcurveto
            -40 56 431 vlineto
            87 -47 52 -119 -51 -50 -9 -9 -28 vhcurveto
            239 -463 rmoveto
            -23 -26 -43 -21 -50 hhcurveto
            -67 -23 29 56 hvcurveto
            31 vlineto
            45 18 26 66 19 vhcurveto
            125 35 rlineto
            return
          </CharString>
          <CharString index="8">
            77 646 rmoveto
            -99 -87 callgsubr
            -98 return
          </CharString>
          <CharString index="9">
            125 callsubr
            -96 callsubr
            return
          </CharString>
          <CharString index="10">
            -96 callgsubr
            190 65 callgsubr
            return
          </CharString>
          <CharString index="11">
            -93 callsubr
            0 vhcurveto
            return
          </CharString>
          <CharString index="12">
            -79 callgsubr
            -26 -25 4 6 -21 vhcurveto
            return
          </CharString>
          <CharString index="13">
            rmoveto
            -92 callgsubr
            return
          </CharString>
          <CharString index="14">
            -185 vlineto
            278 callsubr
            return
          </CharString>
          <CharString index="15">
            51 vlineto
            -8 -30 -50 -9 -61 -94 callgsubr
            return
          </CharString>
          <CharString index="16">
            -40 -15 -32 238 callsubr
            return
          </CharString>
          <CharString index="17">
            -46 286 -471 vlineto
            -107 callsubr
            return
          </CharString>
          <CharString index="18">
            rmoveto
            26 9 14 20 20 -9 15 -26 -25 -10 -15 -20 -20 10 -14 25 hvcurveto
            129 hmoveto
            25 10 14 20 20 -10 15 -25 -26 -9 -15 -20 -20 9 -14 26 hvcurveto
            return
          </CharString>
          <CharString index="19">
            -74 callgsubr
            67 15 38 callsubr
            12 31 60 68 9 -31 -46 vhcurveto
            return
          </CharString>
          <CharString index="20">
            rmoveto
            -65 30 -37 56 -24 vhcurveto
            89 -41 rlineto
            53 -23 13 -18 -39 vvcurveto
            -22 vlineto
            -53 -28 -30 -92 -47 -39 8 10 -30 vhcurveto
            -54 vlineto
            -9 28 38 -8 52 hhcurveto
            119 56 48 88 hvcurveto
            26 vlineto
            62 -35 33 -57 26 vhcurveto
            -86 40 rlineto
            -46 20 -16 19 49 vvcurveto
            28 vlineto
            56 17 27 91 41 37 -8 -10 30 vhcurveto
            54 vlineto
            9 -28 -40 8 -41 hhcurveto
            -120 -45 -47 -88 hvcurveto
            return
          </CharString>
          <CharString index="21">
            rmoveto
            -89 callgsubr
            return
          </CharString>
          <CharString index="22">
            -58 callgsubr
            -88 -19 44 58 hvcurveto
            return
          </CharString>
          <CharString index="23">
            46 10 27 0 vhcurveto
            185 -106 hlineto
            -35 -27 -9 0 hvcurveto
            -47 vlineto
            0 26 8 30 67 11 98 callgsubr
            -110 -110 -27 22 72 vhcurveto
            35 vlineto
            45 21 28 72 79 callgsubr
            return
          </CharString>
          <CharString index="24">
            vlineto
            -91 70 -50 99 52 33 7 9 30 vhcurveto
            -72 callsubr
            return
          </CharString>
          <CharString index="25">
            -14 29 478 rmoveto
            -67 30 -41 55 -30 vhcurveto
            116 -64 rlineto
            44 -23 13 -23 -46 vvcurveto
            -46 vlineto
            -52 -33 -38 -90 -49 -50 10 12 -31 vhcurveto
            -56 vlineto
            -10 27 51 -9 53 hhcurveto
            123 57 54 87 hvcurveto
            53 vlineto
            62 -26 40 -55 30 vhcurveto
            -117 65 rlineto
            -42 23 -18 26 48 vvcurveto
            54 vlineto
            55 36 28 73 49 47 -7 -11 29 vhcurveto
            56 vlineto
            8 -27 -46 7 -52 hhcurveto
            -112 -55 -53 -83 hvcurveto
            return
          </CharString>
          <CharString index="26">
            57 callsubr
            8 24 20 2 25 hhcurveto
            68 20 -29 -43 hvcurveto
            -188 vlineto
            -40 -13 -32 -58 -1 vhcurveto
            -6 -7 1 -6 hhcurveto
            -48 vlineto
            -1 7 287 callgsubr
            189 vlineto
            77 -47 43 -91 -29 -23 -4 -7 -19 vhcurveto
            106 279 46 return
          </CharString>
          <CharString index="27">
            13 2 14 16 -63 callgsubr
            return
          </CharString>
          <CharString index="28">
            -80 callgsubr
            -59 callsubr
            203 vlineto
            43 14 34 67 return
          </CharString>
          <CharString index="29">
            58 63 145 rmoveto
            -88 50 -67 113 112 366 callsubr
            378 vlineto
            88 -50 67 -112 -113 -50 -67 -88 vhcurveto
            268 -377 rmoveto
            -62 -29 -42 -76 -77 -29 42 62 vhcurveto
            376 vlineto
            62 29 42 77 76 29 -42 -62 vhcurveto
            return
          </CharString>
          <CharString index="30">
            -81 56 -47 96 39 24 3 6 28 vhcurveto
            -94 301 callsubr
            -98 vlineto
            -7 -30 -21 356 callgsubr
            31 49 hvcurveto
            179 175 callsubr
            return
          </CharString>
          <CharString index="31">
            -193 -75 callgsubr
            return
          </CharString>
          <CharString index="32">
            -29 callgsubr
            130 -455 hlineto
            -5 return
          </CharString>
          <CharString index="33">
            -1 -1 8 vhcurveto
            47 vlineto
            2 -8 return
          </CharString>
          <CharString index="34">
            0 8 -37 callsubr
            return
          </CharString>
          <CharString index="35">
            -26 callgsubr
            135 vlineto
            -9 26 30 -6 36 hhcurveto
            96 46 47 77 hvcurveto
            return
          </CharString>
          <CharString index="36">
            -2 39 -14 35 -37 15 rrcurveto
            43 15 11 46 45 vvcurveto
            68 vlineto
            80 -52 49 -99 -45 -33 -7 -8 -25 vhcurveto
            -52 vlineto
            10 28 33 9 42 hhcurveto
            71 28 -34 -48 hvcurveto
            -67 vlineto
            -44 -11 -37 -77 -1 vhcurveto
            -61 -49 61 hlineto
            77 -1 11 -37 -44 vvcurveto
            return
          </CharString>
          <CharString index="37">
            vlineto
            -104 callsubr
            return
          </CharString>
          <CharString index="38">
            -73 40 140 callgsubr
            -11 callsubr
            259 vlineto
            44 24 -9 callsubr
            return
          </CharString>
          <CharString index="39">
            rmoveto
            132 vlineto
            44 15 28 67 68 14 -28 -44 vhcurveto
            -132 362 callgsubr
            return
          </CharString>
          <CharString index="40">
            3 -80 callsubr
            return
          </CharString>
          <CharString index="41">
            -48 -31 callsubr
            return
          </CharString>
          <CharString index="42">
            hhcurveto
            83 43 39 77 hvcurveto
            53 callsubr
          </CharString>
          <CharString index="43">
            27 9 15 21 21 -9 15 -27 -27 -9 -15 -21 -21 9 -15 27 hvcurveto
            return
          </CharString>
          <CharString index="44">
            rmoveto
            -12 vlineto
            -20 -5 -11 -16 vhcurveto
            1 -29 -33 40 -46 hhcurveto
            -45 -19 -31 -38 hvcurveto
            -15 46 12 vlineto
            20 6 11 16 vhcurveto
            35 28 -41 46 hhcurveto
            40 22 25 44 hvcurveto
            15 vlineto
            endchar
          </CharString>
          <CharString index="45">
            98 callsubr
            6 13 1 0 hvcurveto
            -2 callgsubr
            return
          </CharString>
          <CharString index="46">
            10 callsubr
            167 138 -344 139 callgsubr
            -256 -138 141 236 callgsubr
            -40 -43 -77 -25 4 -30 0 vhcurveto
            53 hlineto
            0 -4 32 22 vvcurveto
            43 12 29 63 64 12 -28 -44 vhcurveto
            endchar
          </CharString>
          <CharString index="47">
            rmoveto
            -42 -33 -19 -38 -12 hvcurveto
            18 -26 -36 10 -47 hhcurveto
            -112 -51 -57 -87 hvcurveto
            -79 vlineto
            -68 31 -50 68 -18 vhcurveto
            -28 -8 -22 -22 -35 vvcurveto
            -16 vlineto
            -55 43 -30 77 vhcurveto
            60 hlineto
            69 10 -28 -38 hvcurveto
            -10 vlineto
            -44 -31 -28 -91 vhcurveto
            -39 hlineto
            -68 -43 12 23 -40 hvcurveto
            -57 vlineto
            -16 30 51 -13 71 hhcurveto
            40 hlineto
            129 48 48 75 hvcurveto
            12 vlineto
            73 -38 41 -97 vhcurveto
            -59 hlineto
            -52 -18 17 33 40 21 18 41 112 50 57 87 hvcurveto
            79 vlineto
            40 -11 34 -22 24 vhcurveto
            11 12 16 6 21 hhcurveto
            33 58 hlineto
            return
          </CharString>
          <CharString index="48">
            vlineto
            -93 47 -51 callsubr
            return
          </CharString>
          <CharString index="49">
            3 3 0 2 hhcurveto
            -188 -201 rlineto
            68 hlineto
            202 215 rlineto
            385 vmoveto
            -337 vlineto
            -7 -18 -31 -7 -39 hhcurveto
            -72 -25 32 44 hvcurveto
            275 vlineto
            endchar
          </CharString>
          <CharString index="50">
            rlineto
            40 3 22 26 68 hhcurveto
            26 20 -5 0 hvcurveto
            47 vlineto
            0 -22 5 -25 47 callsubr
            47 -44 return
          </CharString>
          <CharString index="51">
            rmoveto
            -35 -66 -35 66 rlineto
            -39 hlineto
            49 -106 rlineto
            50 hlineto
            49 106 rlineto
            endchar
          </CharString>
          <CharString index="52">
            rmoveto
            -105 callgsubr
            -51 -37 -13 -25 -23 hvcurveto
            24 -19 -33 14 -54 hhcurveto
            80 callgsubr
            373 -471 vlineto
            -6 -19 110 callgsubr
            -297 -119 rmoveto
            245 callgsubr
            24 29 197 callgsubr
            -43 hvcurveto
            -192 -81 callsubr
            -1042 -40 callgsubr
            endchar
          </CharString>
          <CharString index="53">
            -48 vlineto
            -2 8 16 -1 9 hhcurveto
            84 36 return
          </CharString>
          <CharString index="54">
            165 callgsubr
            204 return
          </CharString>
          <CharString index="55">
            rmoveto
            297 callsubr
            hvcurveto
            67 vlineto
            71 -29 50 -102 -27 198 callsubr
            vhcurveto
            106 364 70 callsubr
            vhcurveto
            return
          </CharString>
          <CharString index="56">
            -56 112 24 131 callgsubr
            vhcurveto
            -85 callsubr
            return
          </CharString>
          <CharString index="57">
            122 callgsubr
            -93 callgsubr
            return
          </CharString>
          <CharString index="58">
            -103 callgsubr
            -247 85 callsubr
            24 vhcurveto
            -39 callsubr
            return
          </CharString>
          <CharString index="59">
            vlineto
            -46 callgsubr
            return
          </CharString>
          <CharString index="60">
            53 -27 callgsubr
            return
          </CharString>
          <CharString index="61">
            48 31 vlineto
            115 60 207 callsubr
            -21 5 -29 141 callgsubr
            26 25 vvcurveto
            50 10 29 61 62 4 -30 -50 vhcurveto
            -55 vlineto
            -83 -42 -16 -85 vhcurveto
            return
          </CharString>
          <CharString index="62">
            rmoveto
            51 440 hlineto
            0 35 11 42 67 19 -28 -44 vhcurveto
            -193 vlineto
            -43 -19 -30 -72 2 vhcurveto
            -48 vlineto
            1 10 -1 7 hhcurveto
            84 41 47 72 hvcurveto
            195 vlineto
            71 -45 49 -91 -42 -37 -12 0 vhcurveto
            112 285 46 -1058 -90 callsubr
            426 vlineto
            7 24 31 2 25 hhcurveto
            67 13 -29 -44 hvcurveto
            -117 vlineto
            125 callgsubr
            26 7 4 14 vhcurveto
            -224 468 rmoveto
            -133 vlineto
            10 -19 -27 174 callsubr
            384 288 callgsubr
            -72 -25 365 callgsubr
          </CharString>
          <CharString index="63">
            hlineto
            -154 668 rlineto
            -83 hlineto
            -154 -668 rlineto
            59 hlineto
            43 192 rlineto
            187 hlineto
            return
          </CharString>
          <CharString index="64">
            rmoveto
            -37 -106 rlineto
            40 hlineto
            56 106 rlineto
            endchar
          </CharString>
          <CharString index="65">
            24 29 2 25 hhcurveto
            68 11 -29 -44 hvcurveto
            return
          </CharString>
          <CharString index="66">
            -74 308 callsubr
            146 vlineto
            186 -144 rlineto
            -66 vlineto
            -4 -10 -30 -9 -47 hhcurveto
            338 vmoveto
            47 30 -10 -4 10 hvcurveto
            -195 vlineto
            -185 144 rlineto
            38 5 26 27 67 hhcurveto
            endchar
          </CharString>
          <CharString index="67">
            -9 -30 -39 -9 -44 hhcurveto
            -94 -35 34 60 hvcurveto
            109 259 170 vlineto
            86 -46 68 -112 return
          </CharString>
          <CharString index="68">
            49 vlineto
            -7 -32 43 callsubr
            return
          </CharString>
          <CharString index="69">
            125 callgsubr
            25 7 4 15 vhcurveto
            return
          </CharString>
          <CharString index="70">
            -27 -46 vvcurveto
            return
          </CharString>
          <CharString index="71">
            -4 -9 -39 -10 -47 hhcurveto
            -72 return
          </CharString>
          <CharString index="72">
            rmoveto
            -102 146 rlineto
            -49 hlineto
            92 -146 rlineto
            return
          </CharString>
          <CharString index="73">
            56 129 565 rmoveto
            -56 -565 57 485 hlineto
            17 36 36 12 347 callsubr
            -432 57 435 vlineto
            85 -53 47 -82 -46 -47 -18 -10 -24 vhcurveto
            return
          </CharString>
          <CharString index="74">
            vlineto
            43 12 25 67 vhcurveto
            return
          </CharString>
          <CharString index="75">
            -73 callsubr
            -71 vlineto
            return
          </CharString>
          <CharString index="76">
            hhcurveto
            73 callsubr
            return
          </CharString>
          <CharString index="77">
            245 callsubr
            40 28 6 8 22 vhcurveto
            456 vmoveto
            -408 vlineto
            -7 -19 -31 -7 -39 hhcurveto
            -72 -24 33 43 hvcurveto
            346 vlineto
            endchar
          </CharString>
          <CharString index="78">
            509 179 rmoveto
            -67 157 callgsubr
            44 15 28 67 68 14 -28 -44 vhcurveto
            -132 vlineto
            -43 -14 -29 -68 vhcurveto
            324 vmoveto
            -93 -40 -43 -77 hvcurveto
            246 callgsubr
            vhcurveto
            -165 -502 rmoveto
            48 vlineto
            -2 -16 -35 -2 -18 -94 callgsubr
            337 46 -661 -46 272 hlineto
            -5 callgsubr
            rlineto
            return
          </CharString>
          <CharString index="79">
            23 callgsubr
            -8 24 296 callgsubr
            endchar
          </CharString>
          <CharString index="80">
            -38 callsubr
            -132 50 return
          </CharString>
          <CharString index="81">
            vvcurveto
            -24 callgsubr
          </CharString>
          <CharString index="82">
            52 -27 callgsubr
            return
          </CharString>
          <CharString index="83">
            rmoveto
            -266 -280 rlineto
            71 hlineto
            106 113 82 87 9 14 2 5 rlinecurve
            -5 -3 -56 -80 vvcurveto
            -34 51 601 99 46 -151 -227 -140 112 vlineto
            317 callgsubr
            -29 4 -25 157 callsubr
            -4 19 34 vvcurveto
            43 12 29 64 63 13 -28 -44 vhcurveto
            -111 -79 vlineto
            return
          </CharString>
          <CharString index="84">
            -35 -26 -24 -41 -39 vvcurveto
            -44 27 -22 52 vhcurveto
            13 44 -12 hlineto
            -25 -13 9 27 32 19 36 31 24 hvcurveto
            return
          </CharString>
          <CharString index="85">
            -68 callsubr
            -51 132 rmoveto
            246 callgsubr
            -93 -40 -43 -77 vhcurveto
            40 -372 151 callsubr
            337 46 -661 -4 callgsubr
            endchar
          </CharString>
          <CharString index="86">
            rmoveto
            -44 -11 -24 -68 -67 -11 25 43 vhcurveto
            98 vlineto
            43 11 318 callsubr
            return
          </CharString>
          <CharString index="87">
            rmoveto
            353 172 -353 vlineto
            -44 -15 -33 -71 -72 -14 33 44 vhcurveto
            return
          </CharString>
          <CharString index="88">
            118 callgsubr
            endchar
          </CharString>
          <CharString index="89">
            45 34 7 7 26 vhcurveto
            54 vlineto
            -9 -26 -36 -6 -41 hhcurveto
            -89 -19 31 54 hvcurveto
            298 vlineto
            54 19 32 89 38 36 -5 -8 27 vhcurveto
            53 vlineto
            7 -24 -35 6 -44 hhcurveto
            -118 -45 -51 -87 hvcurveto
            return
          </CharString>
          <CharString index="90">
            -3 callgsubr
            -10 44 42 -4 49 160 callsubr
          </CharString>
          <CharString index="91">
            214 callsubr
            52 hmoveto
            -84 callsubr
            endchar
          </CharString>
          <CharString index="92">
            21 callsubr
            70 107 callsubr
            return
          </CharString>
          <CharString index="93">
            159 -56 callgsubr
            return
          </CharString>
          <CharString index="94">
            3 callsubr
            27 return
          </CharString>
          <CharString index="95">
            rmoveto
            77 -46 48 -97 -97 -46 -48 -77 vhcurveto
            return
          </CharString>
          <CharString index="96">
            -72 66 callsubr
            return
          </CharString>
          <CharString index="97">
            rmoveto
            -81 57 -46 96 vhcurveto
            5 5 0 5 hhcurveto
            -163 -175 rlineto
            65 hlineto
            172 184 rlineto
            0 1 0 1 vhcurveto
            -124 301 callsubr
            -70 286 callsubr
            32 49 hvcurveto
            150 vlineto
            43 18 29 72 356 callsubr
            99 46 return
          </CharString>
          <CharString index="98">
            34 72 38 35 -8 -6 23 vhcurveto
            -442 -47 callsubr
            return
          </CharString>
          <CharString index="99">
            35 50 136 rmoveto
            -91 50 -52 133 46 61 7 8 40 vhcurveto
            47 vlineto
            -8 -48 -51 -6 -47 hhcurveto
            -108 -24 38 58 hvcurveto
            54 vlineto
            43 24 27 72 vhcurveto
            71 hlineto
            10 9 -1 -1 8 hvcurveto
            -133 -150 57 -1 114 130 rlineto
            7 -12 2 -16 -19 vvcurveto
            -30 51 31 vlineto
            77 -36 38 -88 vhcurveto
            -75 hlineto
            -71 -19 26 42 hvcurveto
            13 vlineto
            43 16 26 71 vhcurveto
            160 143 98 46 -472 -46 321 -95 -107 hlineto
            -96 321 callsubr
            -13 vlineto
            -46 17 -31 36 -16 vhcurveto
            -37 -16 -19 -30 -46 vvcurveto
            return
          </CharString>
          <CharString index="100">
            17 -33 -41 vhcurveto
            -149 return
          </CharString>
          <CharString index="101">
            -36 callgsubr
            76 46 -233 -46 104 hlineto
            135 callgsubr
            -101 76 -43 return
          </CharString>
          <CharString index="102">
            54 vlineto
            -9 -30 -44 -8 -42 hhcurveto
            -90 -26 33 53 hvcurveto
            400 vlineto
            53 26 33 90 42 42 -8 -9 30 vhcurveto
            54 vlineto
            8 -28 -41 8 -45 hhcurveto
            -120 -53 -52 -86 hvcurveto
            return
          </CharString>
          <CharString index="103">
            29 callgsubr
            -23 -27 -70 vhcurveto
            return
          </CharString>
          <CharString index="104">
            -43 -19 -34 -72 -72 -19 34 43 vhcurveto
            263 vlineto
            216 callgsubr
            72 19 -33 -44 vhcurveto
            return
          </CharString>
          <CharString index="105">
            -53 -49 -77 10 callgsubr
            250 vlineto
            44 return
          </CharString>
          <CharString index="106">
            34 callgsubr
            51 34 83 hvcurveto
            return
          </CharString>
          <CharString index="107">
            -73 40 -49 85 3 vhcurveto
            return
          </CharString>
          <CharString index="108">
            48 31 vlineto
            115 60 207 callsubr
            -20 5 -30 0 vhcurveto
            51 hlineto
            0 -4 27 24 vvcurveto
            50 10 29 61 62 4 -30 -50 vhcurveto
            -55 vlineto
            -83 -42 -16 -85 vhcurveto
            -81 -96 hlineto
            261 callgsubr
            return
          </CharString>
          <CharString index="109">
            49 -92 -41 -38 -12 0 vhcurveto
            112 286 46 return
          </CharString>
          <CharString index="110">
            10 -25 -21 5 -32 hhcurveto
            -52 -39 332 callsubr
            return
          </CharString>
          <CharString index="111">
            92 -33 124 callsubr
            return
          </CharString>
          <CharString index="112">
            47 vlineto
            -11 -36 -32 -4 -54 hhcurveto
            -91 -33 33 52 -55 callgsubr
            return
          </CharString>
          <CharString index="113">
            -81 -48 24 74 hvcurveto
            49 vlineto
            44 4 callgsubr
            43 vvcurveto
            75 vlineto
            46 8 27 0 vhcurveto
            return
          </CharString>
          <CharString index="114">
            73 668 rmoveto
            -668 return
          </CharString>
          <CharString index="115">
            49 -8 -29 callgsubr
            return
          </CharString>
          <CharString index="116">
            -193 57 callsubr
            7 24 29 2 25 hhcurveto
            68 11 -29 -44 hvcurveto
            -247 85 callsubr
            24 102 callsubr
            -278 -294 -52 callsubr
            endchar
          </CharString>
          <CharString index="117">
            vlineto
            -76 237 callgsubr
            76 vhcurveto
            return
          </CharString>
          <CharString index="118">
            52 34 83 hvcurveto
            return
          </CharString>
          <CharString index="119">
            141 callsubr
            33 49 callsubr
          </CharString>
          <CharString index="120">
            rmoveto
            69 19 -29 -43 hvcurveto
            -47 vlineto
            -44 -24 -29 -72 -28 -28 2 8 -30 vhcurveto
            74 -49 -212 49 89 vlineto
            -7 29 23 -2 36 hhcurveto
            105 41 42 78 hvcurveto
            48 vlineto
            35 -10 25 -21 13 vhcurveto
            157 -264 -93 callgsubr
            return
          </CharString>
          <CharString index="121">
            -35 callgsubr
            -134 99 -44 127 54 53 8 7 34 vhcurveto
            return
          </CharString>
          <CharString index="122">
            rmoveto
            357 callgsubr
            153 -434 -25 callsubr
            -950 -46 800 -120 -680 44 callgsubr
            endchar
          </CharString>
          <CharString index="123">
            rmoveto
            -39 -1 -22 -25 -39 hhcurveto
            -39 -22 25 39 -1 hvcurveto
            -46 hlineto
            -59 2 37 -47 69 hhcurveto
            69 37 47 59 2 hvcurveto
            return
          </CharString>
          <CharString index="124">
            -25 4 6 -21 vhcurveto
            161 -312 vlineto
            -98 callsubr
            return
          </CharString>
          <CharString index="125">
            578 628 251 rmoveto
            -77 39 -43 93 34 24 4 6 24 vhcurveto
            -141 -93 callgsubr
            -1015 -46 524 vlineto
            -76 callgsubr
            161 vlineto
            8 -49 -47 6 -46 hhcurveto
            -102 -53 -49 -77 hvcurveto
            -250 -62 callsubr
            248 vlineto
            45 27 34 75 29 32 -2 -4 29 vhcurveto
            -266 vlineto
            return
          </CharString>
          <CharString index="126">
            378 668 rmoveto
            -260 -668 rlineto
            46 hlineto
            260 668 rlineto
            -284 -220 rmoveto
            -36 -20 27 65 65 20 27 36 36 20 -27 -65 -65 -20 -27 -36 hvcurveto
            -46 vmoveto
            68 37 50 88 88 -37 50 -68 -68 -37 -50 -88 -88 37 -50 68 hvcurveto
            261 -366 rmoveto
            -36 -20 27 65 65 20 27 36 35 20 -27 -65 -65 -20 -27 -35 hvcurveto
            -46 vmoveto
            68 37 50 88 88 -37 50 -68 -69 -37 -50 -88 -88 37 -50 69 hvcurveto
            return
          </CharString>
          <CharString index="127">
            -4 callgsubr
            568 635 rmoveto
            -646 -47 callsubr
            vlineto
            -259 -120 -12 callsubr
            -16 3 -19 275 callgsubr
            0 -2 18 17 vvcurveto
            44 18 305 callsubr
            return
          </CharString>
          <CharString index="128">
            vlineto
            43 197 callsubr
            49 105 callsubr
            return
          </CharString>
          <CharString index="129">
            58 callsubr
            -91 126 callgsubr
            return
          </CharString>
          <CharString index="130">
            184 callsubr
            -61 29 -43 60 -15 vhcurveto
            -83 -152 rlineto
            259 callsubr
            4 hlineto
            3 2 0 3 hhcurveto
            77 -146 rlineto
            56 hlineto
            -84 153 rlineto
            58 16 28 42 60 vvcurveto
            -52 hmoveto
            -3 callsubr
            endchar
          </CharString>
          <CharString index="131">
            70 callgsubr
            -40 return
          </CharString>
          <CharString index="132">
            339 600 rmoveto
            220 46 -581 -46 86 -301 hlineto
            -77 51 -46 96 vhcurveto
            3 3 0 3 hhcurveto
            -167 -197 rlineto
            64 hlineto
            171 207 rlineto
            1 -186 50 441 hlineto
            8 25 39 223 callgsubr
            -6 51 6 vlineto
            71 -28 50 -102 -28 -41 -4 -7 -21 vhcurveto
            -50 -255 rmoveto
            -3 -15 -27 -6 -34 hhcurveto
            -72 -25 33 43 hvcurveto
            300 173 vlineto
            return
          </CharString>
          <CharString index="133">
            hvcurveto
            -286 -46 292 -96 -84 hlineto
            -97 -45 -40 -77 hvcurveto
            -6 vlineto
            -77 46 -41 96 vhcurveto
            22 86 callgsubr
            -41 vlineto
            -46 -30 -25 -72 -38 -29 2 6 -27 vhcurveto
            83 -50 -234 50 104 vlineto
            -6 26 31 -3 38 hhcurveto
            107 46 39 80 hvcurveto
            41 vlineto
            77 -46 41 -97 vhcurveto
            -22 hlineto
            -71 -19 28 43 hvcurveto
            6 234 callsubr
            136 144 94 46 hlineto
            endchar
          </CharString>
          <CharString index="134">
            -5 38 604 rmoveto
            10 31 34 6 49 hhcurveto
            90 21 -35 -53 hvcurveto
            -68 vlineto
            -61 -21 -42 -76 vhcurveto
            -66 -53 66 hlineto
            76 25 -41 -61 hvcurveto
            -69 vlineto
            -54 -25 -35 -90 -49 -47 11 11 -30 vhcurveto
            -57 vlineto
            -10 27 46 -8 53 hhcurveto
            120 53 55 86 hvcurveto
            74 vlineto
            64 -25 42 -53 19 vhcurveto
            52 22 22 41 66 vvcurveto
            69 vlineto
            85 -49 55 -120 -52 -36 -6 -8 -26 vhcurveto
            endchar
          </CharString>
          <CharString index="135">
            rmoveto
            -54 -30 -15 -73 -73 -29 15 54 vhcurveto
            -49 -2 hlineto
            -86 53 -27 98 98 54 27 86 vhcurveto
            2 vlineto
            return
          </CharString>
          <CharString index="136">
            24 callsubr
            -6 -49 hhcurveto
            return
          </CharString>
          <CharString index="137">
            35 63 145 rmoveto
            -88 46 -67 112 112 46 67 88 vhcurveto
            128 vlineto
            93 -56 47 -92 -41 -39 -8 -15 -31 vhcurveto
            129 vlineto
            53 25 48 90 49 42 -8 -11 31 vhcurveto
            55 vlineto
            9 -27 -42 8 -53 hhcurveto
            -123 -49 -67 -86 hvcurveto
            259 -375 rmoveto
            -61 -25 -42 -76 -76 -25 42 61 vhcurveto
            189 vlineto
            16 27 41 11 40 hhcurveto
            60 34 -25 -64 hvcurveto
            endchar
          </CharString>
          <CharString index="138">
            44 callgsubr
            190 vlineto
            357 callgsubr
            return
          </CharString>
          <CharString index="139">
            -117 245 568 rmoveto
            -59 -20 -19 -28 -37 hvcurveto
            44 -56 -565 57 463 vlineto
            34 48 16 15 42 hhcurveto
            35 56 hlineto
            return
          </CharString>
          <CharString index="140">
            289 callgsubr
            15 -26 -25 -10 -15 -20 -20 10 368 callgsubr
          </CharString>
          <CharString index="141">
            434 rmoveto
            -213 vlineto
            -309 -270 -1 -1 rlineto
            74 hlineto
            126 109 71 61 38 36 1 3 rlinecurve
            -159 50 -86 callgsubr
            -591 -46 442 -120 -322 -47 112 vlineto
            -73 callsubr
            -106 vlineto
            -48 -25 -34 -70 -37 -28 5 8 -28 vhcurveto
            -49 vlineto
            -7 25 24 -5 44 hhcurveto
            98 50 48 82 hvcurveto
            107 65 callgsubr
            return
          </CharString>
          <CharString index="142">
            -393 -194 -55 rmoveto
            -83 -27 -44 -69 hvcurveto
            -74 vlineto
            -77 37 -47 94 17 14 -1 2 14 vhcurveto
            1 -1 -2 39 -5 hhcurveto
            -19 -2 -26 -6 -19 -7 rrcurveto
            -83 -19 37 55 -8 4 77 10 hvcurveto
            42 1 15 32 65 hhcurveto
            62 17 -22 -40 hvcurveto
            -1 -1 -66 -1 hhcurveto
            -3 40 2 2 hvcurveto
            70 vlineto
            42 17 32 65 67 14 -33 -43 vhcurveto
            -42 vlineto
            -73 -3 -38 return
          </CharString>
          <CharString index="143">
            427 251 -68 callsubr
            return
          </CharString>
          <CharString index="144">
            -46 rmoveto
            -4 69 vlineto
            157 131 47 41 28 29 11 13 rlinecurve
            57 vlineto
            -16 425 rmoveto
            -451 -46 451 hlineto
            1 -120 rmoveto
            339 callgsubr
            -120 vlineto
            -48 -25 -34 -70 -37 -28 5 8 -28 vhcurveto
            -49 vlineto
            -7 25 24 -5 44 hhcurveto
            98 50 49 81 hvcurveto
            121 65 callgsubr
            167 hlineto
            return
          </CharString>
          <CharString index="145">
            -34 -43 vhcurveto
            -146 52 146 vlineto
            46 return
          </CharString>
          <CharString index="146">
            -102 callsubr
            -52 return
          </CharString>
          <CharString index="147">
            -18 35 668 rmoveto
            -51 249 vlineto
            -255 -566 rlineto
            -51 311 51 -250 vlineto
            256 566 rlineto
            51 vlineto
            return
          </CharString>
          <CharString index="148">
            -39 callsubr
            50 36 117 callgsubr
            return
          </CharString>
          <CharString index="149">
            321 callsubr
            -13 18 callgsubr
            return
          </CharString>
          <CharString index="150">
            -32 -101 callgsubr
            return
          </CharString>
          <CharString index="151">
            16 -27 -26 -10 -16 -21 -20 10 -16 26 83 callgsubr
            return
          </CharString>
          <CharString index="152">
            827 rmoveto
            1 8 10 0 8 hhcurveto
            31 18 -12 -27 17 hvcurveto
            93 -143 rlineto
            54 hlineto
            -108 167 rlineto
            44 -29 -27 18 318 callgsubr
            164 -47 rmoveto
            332 callgsubr
            29 9 -17 -31 9 hvcurveto
            41 -134 rlineto
            49 hlineto
            -48 158 rlineto
            50 -14 -27 21 -45 224 callsubr
            return
          </CharString>
          <CharString index="153">
            -81 callgsubr
            81 vlineto
            return
          </CharString>
          <CharString index="154">
            -98 92 callsubr
            return
          </CharString>
          <CharString index="155">
            rmoveto
            225 46 -577 220 callgsubr
            39 2 26 hhcurveto
            67 13 -29 -44 hvcurveto
            -6 51 6 vlineto
            71 -29 50 -101 -28 -42 -4 -7 -21 vhcurveto
            -50 -309 247 callsubr
          </CharString>
          <CharString index="156">
            hlineto
            13 17 callgsubr
          </CharString>
          <CharString index="157">
            hhcurveto
            -103 -72 33 96 hvcurveto
            97 vlineto
            -4 19 22 136 callgsubr
            199 callgsubr
            288 -106 hlineto
            5 -25 -29 4 -29 hhcurveto
            -92 -39 -43 -77 hvcurveto
            214 -194 rmoveto
            -6 -14 22 callgsubr
            31 357 callsubr
            endchar
          </CharString>
          <CharString index="158">
            -7 -44 hhcurveto
            -74 -45 32 62 hvcurveto
            return
          </CharString>
          <CharString index="159">
            98 callsubr
            6 12 1 1 hhcurveto
            -2 callgsubr
            return
          </CharString>
          <CharString index="160">
            -45 callgsubr
            0 vhcurveto
            -52 hmoveto
            -83 callgsubr
          </CharString>
          <CharString index="161">
            rmoveto
            -471 vlineto
            -106 callgsubr
            return
          </CharString>
          <CharString index="162">
            rmoveto
            -82 60 -51 115 319 callsubr
            vhcurveto
            5 callsubr
            return
          </CharString>
          <CharString index="163">
            80 244 98 rmoveto
            71 72 30 32 1 3 rrcurveto
            -3 -2 -37 -76 vvcurveto
            -89 -25 callsubr
            -516 -46 155 -243 vlineto
            -40 -15 -33 238 callsubr
            244 158 -327 vlineto
            -263 -273 rlineto
            69 hlineto
            return
          </CharString>
          <CharString index="164">
            163 callsubr
            447 vlineto
            return
          </CharString>
          <CharString index="165">
            29 68 8 12 -74 callsubr
            -12 1 -10 hhcurveto
            return
          </CharString>
          <CharString index="166">
            rlineto
            14 hlineto
            37 19 -12 -27 -26 -23 -12 -32 -16 -17 3 5 -11 hvcurveto
            -36 vlineto
            -5 14 19 -2 17 hhcurveto
            48 39 25 48 42 -29 23 -40 2 hvcurveto
            return
          </CharString>
          <CharString index="167">
            249 callgsubr
            30 vlineto
            43 20 29 72 vhcurveto
            35 49 -34 -11 callgsubr
            74 vlineto
            46 8 27 0 vhcurveto
            return
          </CharString>
          <CharString index="168">
            234 callgsubr
            99 46 return
          </CharString>
          <CharString index="169">
            rmoveto
            3 11 39 7 48 hhcurveto
            62 16 -21 -40 hvcurveto
            -18 vlineto
            -35 -4 -25 -36 -24 vhcurveto
            -65 -42 rlineto
            -63 -41 -21 -25 -66 vvcurveto
            -77 236 42 -192 36 vlineto
            47 4 8 61 42 vhcurveto
            62 42 rlineto
            48 33 14 30 54 vvcurveto
            19 vlineto
            66 -39 37 -83 -41 -46 -7 -2 -11 vhcurveto
            endchar
          </CharString>
          <CharString index="170">
            0 -8 -24 -49 vvcurveto
            -75 92 callgsubr
            251 callgsubr
            -51 vlineto
            -104 75 -41 return
          </CharString>
          <CharString index="171">
            vlineto
            -47 17 -30 36 -16 vhcurveto
            -37 -16 -19 return
          </CharString>
          <CharString index="172">
            10 -41 hhcurveto
            -48 -30 -80 callgsubr
            vlineto
            -93 47 -56 112 vhcurveto
            60 47 -59 164 callgsubr
            67 15 -34 -43 vhcurveto
            -146 52 146 39 callgsubr
            return
          </CharString>
          <CharString index="173">
            -2 -19 29 44 vvcurveto
            return
          </CharString>
          <CharString index="174">
            359 callgsubr
            20 21 -10 154 callsubr
            return
          </CharString>
          <CharString index="175">
            hhcurveto
            97 89 callgsubr
            return
          </CharString>
          <CharString index="176">
            vlineto
            -136 92 -33 100 48 97 callsubr
            return
          </CharString>
          <CharString index="177">
            vlineto
            -85 callgsubr
            -72 return
          </CharString>
          <CharString index="178">
            49 vlineto
            -10 -33 -40 -7 -46 hhcurveto
            -72 -39 29 59 hvcurveto
            91 vlineto
            43 18 29 72 vhcurveto
            13 hlineto
            110 27 61 60 hvcurveto
            185 89 46 -476 -46 vlineto
            239 -260 rmoveto
            -71 -21 33 43 hvcurveto
            129 vlineto
            163 -188 rlineto
            -12 -16 -22 -5 -24 hhcurveto
            endchar
          </CharString>
          <CharString index="179">
            rmoveto
            205 callgsubr
            -588 -46 437 -120 -317 151 callgsubr
            endchar
          </CharString>
          <CharString index="180">
            -98 -42 39 83 hvcurveto
            return
          </CharString>
          <CharString index="181">
            -46 291 hlineto
            -104 callsubr
            49 vlineto
            -7 -31 -33 -101 callgsubr
            return
          </CharString>
          <CharString index="182">
            -96 -94 hlineto
            35 callgsubr
            return
          </CharString>
          <CharString index="183">
            rmoveto
            -43 -12 -90 callgsubr
            79 hlineto
            134 46 rmoveto
            -82 172 257 hlineto
            3 7 -28 -45 hvcurveto
            -71 vlineto
            -54 -22 -17 -68 315 callsubr
            -7 24 -1 1 vhcurveto
            return
          </CharString>
          <CharString index="184">
            rmoveto
            -84 callsubr
            endchar
          </CharString>
          <CharString index="185">
            97 callgsubr
            99 46 return
          </CharString>
          <CharString index="186">
            7 5 24 vhcurveto
            -97 -93 callgsubr
            return
          </CharString>
          <CharString index="187">
            48 -8 25 0 vhcurveto
            return
          </CharString>
          <CharString index="188">
            314 716 rmoveto
            -151 -102 vlineto
            -86 -63 -50 -95 hvcurveto
            -279 vlineto
            -92 48 -52 95 57 31 18 17 21 vhcurveto
            -32 57 716 vlineto
            -58 -629 rmoveto
            -19 -19 -35 -19 -50 hhcurveto
            -59 -31 30 63 hvcurveto
            278 vlineto
            62 37 30 67 vhcurveto
            90 hlineto
            return
          </CharString>
          <CharString index="189">
            hmoveto
            50 440 hlineto
            0 36 11 42 67 18 -28 -44 vhcurveto
            -193 vlineto
            -43 -19 -30 -71 2 vhcurveto
            -48 vlineto
            0 11 -1 7 84 return
          </CharString>
          <CharString index="190">
            50 43 38 33 77 vvcurveto
            36 113 callsubr
            -36 vlineto
            -77 32 -33 54 -43 vhcurveto
            -115 -98 73 -9 return
          </CharString>
          <CharString index="191">
            178 -21 callsubr
            return
          </CharString>
          <CharString index="192">
            vlineto
            106 callgsubr
            return
          </CharString>
          <CharString index="193">
            -5 110 381 41 callgsubr
            118 callgsubr
            return
          </CharString>
          <CharString index="194">
            168 callsubr
            -52 320 callgsubr
            -17 vhcurveto
            127 callsubr
          </CharString>
          <CharString index="195">
            194 callgsubr
            18 -12 -27 17 hvcurveto
            93 -143 rlineto
            return
          </CharString>
          <CharString index="196">
            27 -5 -10 22 vhcurveto
            -414 return
          </CharString>
          <CharString index="197">
            vvcurveto
            -37 vlineto
            -102 54 -39 135 136 52 38 105 vhcurveto
            55 callgsubr
            return
          </CharString>
          <CharString index="198">
            -199 295 callsubr
            -149 vlineto
            -43 -17 -25 -58 -58 -17 26 42 vhcurveto
            156 235 callsubr
            return
          </CharString>
          <CharString index="199">
            -46 -44 -78 vhcurveto
            -189 vlineto
            -78 return
          </CharString>
          <CharString index="200">
            -116 110 callsubr
            -127 -67 rmoveto
            -23 return
          </CharString>
          <CharString index="201">
            rmoveto
            -44 -12 -24 -67 -67 -12 25 43 vhcurveto
            return
          </CharString>
          <CharString index="202">
            39 24 3 6 28 hvcurveto
            -94 301 callsubr
            -98 286 callsubr
            31 49 hvcurveto
            179 vlineto
            43 19 29 71 356 callsubr
            98 46 -586 -46 435 123 callgsubr
            return
          </CharString>
          <CharString index="203">
            -62 rmoveto
            27 9 16 21 20 -9 16 -27 -26 214 callgsubr
            26 hvcurveto
            return
          </CharString>
          <CharString index="204">
            43 79 callsubr
            return
          </CharString>
          <CharString index="205">
            vlineto
            0 callsubr
            return
          </CharString>
          <CharString index="206">
            rmoveto
            -46 callsubr
            return
          </CharString>
          <CharString index="207">
            -94 callsubr
            135 46 rmoveto
            -83 172 257 hlineto
            3 8 -28 -45 hvcurveto
            149 callgsubr
            return
          </CharString>
          <CharString index="208">
            -110 827 rmoveto
            128 callgsubr
            -95 -87 callgsubr
            -100 hlineto
            -107 168 rlineto
            44 -29 -27 17 317 callsubr
            return
          </CharString>
          <CharString index="209">
            vhcurveto
            111 329 rmoveto
            -141 hlineto
            4 -80 callsubr
            143 hlineto
            return
          </CharString>
          <CharString index="210">
            rmoveto
            -53 -37 -28 -39 -32 vhcurveto
            -38 32 -37 28 53 vvcurveto
            42 94 callgsubr
          </CharString>
          <CharString index="211">
            194 callgsubr
            19 -11 -28 17 hvcurveto
            92 -143 rlineto
            55 hlineto
            return
          </CharString>
          <CharString index="212">
            -33 -11 callgsubr
            return
          </CharString>
          <CharString index="213">
            26 167 callgsubr
            -26 return
          </CharString>
          <CharString index="214">
            vlineto
            46 9 27 0 vhcurveto
            return
          </CharString>
          <CharString index="215">
            110 callsubr
            endchar
          </CharString>
          <CharString index="216">
            rmoveto
            -43 -18 -36 -67 -67 -13 36 43 vhcurveto
            243 vlineto
            43 14 35 67 67 17 -35 -43 vhcurveto
            51 -1 rmoveto
            44 17 35 67 67 14 -35 -44 vhcurveto
            -242 vlineto
            -43 -13 -36 -67 -67 -18 35 44 vhcurveto
            return
          </CharString>
          <CharString index="217">
            hlineto
            264 callgsubr
            -52 -64 callgsubr
            return
          </CharString>
          <CharString index="218">
            -53 10 668 rmoveto
            -51 131 -617 58 617 131 51 vlineto
            return
          </CharString>
          <CharString index="219">
            192 callgsubr
            -9 -15 -21 -21 9 -15 27 hvcurveto
            return
          </CharString>
          <CharString index="220">
            236 callgsubr
            -39 -43 -77 vhcurveto
            return
          </CharString>
          <CharString index="221">
            vlineto
            43 19 27 71 vhcurveto
            return
          </CharString>
          <CharString index="222">
            -121 vlineto
            -45 18 -33 33 -19 vhcurveto
            -31 -21 -17 -33 -44 vvcurveto
            -40 vlineto
            -80 46 -47 100 100 43 47 80 vhcurveto
            269 -49 -94 vlineto
            -4 -16 -36 -8 -41 hhcurveto
            -72 -26 29 43 hvcurveto
            endchar
          </CharString>
          <CharString index="223">
            rmoveto
            -42 214 42 vlineto
            endchar
          </CharString>
          <CharString index="224">
            242 callgsubr
            30 26 -1 -3 26 vhcurveto
            -8 -17 -4 -19 -22 vvcurveto
            -193 -47 callgsubr
            return
          </CharString>
          <CharString index="225">
            258 84 callsubr
            return
          </CharString>
          <CharString index="226">
            137 callsubr
            31 51 20 vvcurveto
            return
          </CharString>
          <CharString index="227">
            hhcurveto
            49 166 callgsubr
            return
          </CharString>
          <CharString index="228">
            -99 -87 callgsubr
            -99 return
          </CharString>
          <CharString index="229">
            rmoveto
            69 -38 46 -79 8 vhcurveto
            93 197 46 return
          </CharString>
          <CharString index="230">
            -45 11 216 callsubr
            -47 return
          </CharString>
          <CharString index="231">
            99 176 callsubr
            return
          </CharString>
          <CharString index="232">
            -83 -44 -37 -77 hvcurveto
            return
          </CharString>
          <CharString index="233">
            371 646 rmoveto
            -393 -46 393 hlineto
            -134 -200 rmoveto
            1 -1 12 -9 -45 vvcurveto
            -167 vlineto
            -43 -17 -25 -58 -58 -17 26 42 vhcurveto
            154 294 callgsubr
            return
          </CharString>
          <CharString index="234">
            -47 -12 253 callgsubr
            -51 vlineto
            -104 77 -41 104 52 70 15 14 40 vhcurveto
            -23 35 46 -8 48 51 callgsubr
            -473 -46 vlineto
            endchar
          </CharString>
          <CharString index="235">
            vlineto
            79 -48 38 -65 -29 -20 -8 0 vhcurveto
            -47 vlineto
            0 15 8 29 return
          </CharString>
          <CharString index="236">
            38 -39 93 92 38 39 return
          </CharString>
          <CharString index="237">
            rmoveto
            -72 -28 33 43 hvcurveto
            214 vlineto
            196 -184 rlineto
            -89 vlineto
            -8 -24 -27 -9 -45 hhcurveto
            return
          </CharString>
          <CharString index="238">
            rmoveto
            362 callsubr
            -44 90 callsubr
            return
          </CharString>
          <CharString index="239">
            hvcurveto
            -193 vlineto
            return
          </CharString>
          <CharString index="240">
            39 313 600 rmoveto
            -185 vlineto
            -7 -1 -7 -1 -5 vhcurveto
            -178 204 rlineto
            -61 hmoveto
            -184 vlineto
            -45 16 -32 34 -20 vhcurveto
            -33 -19 -17 -33 -45 vvcurveto
            -91 vlineto
            return
          </CharString>
          <CharString index="241">
            vlineto
            44 25 36 72 11 8 0 -1 10 vhcurveto
            48 vlineto
            1 -10 -10 0 -10 hhcurveto
            -98 -50 return
          </CharString>
          <CharString index="242">
            -162 -151 rlineto
            72 hlineto
            168 161 rlineto
            return
          </CharString>
          <CharString index="243">
            492 193 callsubr
            return
          </CharString>
          <CharString index="244">
            141 callsubr
            32 hlineto
            14 20 return
          </CharString>
          <CharString index="245">
            80 callsubr
            152 -434 return
          </CharString>
          <CharString index="246">
            -33 hlineto
            -72 1 -15 28 return
          </CharString>
          <CharString index="247">
            308 callgsubr
            -12 7 return
          </CharString>
          <CharString index="248">
            rmoveto
            -27 -116 rlineto
            return
          </CharString>
          <CharString index="249">
            -100 67 -43 100 57 44 9 7 24 vhcurveto
            48 vlineto
            -7 -32 -33 -9 -60 hhcurveto
            -74 -41 28 67 hvcurveto
            135 vlineto
            -6 22 27 -4 25 hhcurveto
            70 43 27 45 17 hvcurveto
            return
          </CharString>
          <CharString index="250">
            rmoveto
            49 vlineto
            -7 -31 -32 -10 -60 hhcurveto
            -74 -41 28 65 hvcurveto
            132 vlineto
            -6 23 25 -4 25 hhcurveto
            50 37 117 callgsubr
            167 -294 -93 callgsubr
            return
          </CharString>
          <CharString index="251">
            vlineto
            114 callgsubr
            return
          </CharString>
          <CharString index="252">
            273 callsubr
            -46 vlineto
            88 callsubr
            -53 -46 141 213 callsubr
            -10 return
          </CharString>
          <CharString index="253">
            175 callsubr
            -443 331 callgsubr
            return
          </CharString>
          <CharString index="254">
            292 callsubr
            -52 320 callgsubr
            -17 vhcurveto
            -47 -12 253 callgsubr
            return
          </CharString>
          <CharString index="255">
            205 callsubr
            -11 7 -14 vhcurveto
            endchar
          </CharString>
          <CharString index="256">
            -185 vlineto
            -77 return
          </CharString>
          <CharString index="257">
            34 -18 -35 19 -57 hhcurveto
            -92 -39 -47 -77 hvcurveto
            -243 vlineto
            -77 38 -47 92 58 35 19 34 18 vhcurveto
            -34 17 35 -19 58 hhcurveto
            92 38 47 77 hvcurveto
            return
          </CharString>
          <CharString index="258">
            rmoveto
            -92 callsubr
            return
          </CharString>
          <CharString index="259">
            326 callsubr
            25 21 -5 0 hvcurveto
            47 vlineto
            0 -22 5 -25 47 callsubr
            46 -44 99 return
          </CharString>
          <CharString index="260">
            179 -43 callgsubr
            return
          </CharString>
          <CharString index="261">
            16 -27 -26 182 callsubr
            return
          </CharString>
          <CharString index="262">
            hhcurveto
            92 191 callsubr
            return
          </CharString>
          <CharString index="263">
            0 7 callsubr
            return
          </CharString>
          <CharString index="264">
            0 vhcurveto
            52 hlineto
            0 return
          </CharString>
          <CharString index="265">
            164 rmoveto
            -28 callgsubr
            return
          </CharString>
          <CharString index="266">
            27 10 15 25 24 -10 16 -27 -27 -9 -16 -24 365 callsubr
          </CharString>
          <CharString index="267">
            124 callgsubr
            endchar
          </CharString>
          <CharString index="268">
            -413 rmoveto
            219 callsubr
            40 17 31 21 hvcurveto
            156 return
          </CharString>
          <CharString index="269">
            rmoveto
            25 298 callgsubr
            14 -25 -26 -9 -14 -20 -20 9 -15 26 hvcurveto
            return
          </CharString>
          <CharString index="270">
            -75 callgsubr
            52 return
          </CharString>
          <CharString index="271">
            -99 10 callsubr
            167 return
          </CharString>
          <CharString index="272">
            -46 77 -356 vlineto
            -77 47 -52 104 return
          </CharString>
          <CharString index="273">
            -46 104 292 callsubr
            return
          </CharString>
          <CharString index="274">
            -46 155 -283 return
          </CharString>
          <CharString index="275">
            0 -9 -24 -49 vvcurveto
            return
          </CharString>
          <CharString index="276">
            19 22 57 hvcurveto
            49 45 hlineto
            0 -6 0 -8 vhcurveto
            43 vlineto
            70 -38 45 -81 -45 -32 -16 -26 -19 vhcurveto
            24 -18 -34 9 -47 hhcurveto
            endchar
          </CharString>
          <CharString index="277">
            26 10 16 21 20 -10 16 -26 -27 214 callgsubr
            27 hvcurveto
            return
          </CharString>
          <CharString index="278">
            428 rmoveto
            172 137 -172 vlineto
            return
          </CharString>
          <CharString index="279">
            -57 callsubr
            98 return
          </CharString>
          <CharString index="280">
            1 -18 27 43 vvcurveto
            291 callsubr
            return
          </CharString>
          <CharString index="281">
            6 -34 hhcurveto
            -27 352 callgsubr
            127 vlineto
            return
          </CharString>
          <CharString index="282">
            144 callsubr
            99 46 return
          </CharString>
          <CharString index="283">
            49 43 7 5 return
          </CharString>
          <CharString index="284">
            vlineto
            -43 -25 -30 -72 -27 -28 2 8 -29 vhcurveto
            74 -50 -212 50 90 vlineto
            -8 28 24 -2 34 hhcurveto
            105 42 42 78 hvcurveto
            return
          </CharString>
          <CharString index="285">
            vvcurveto
            182 callgsubr
          </CharString>
          <CharString index="286">
            vvcurveto
            216 callgsubr
            return
          </CharString>
          <CharString index="287">
            vhcurveto
            -50 vlineto
            -7 return
          </CharString>
          <CharString index="288">
            -23 -3 -21 hhcurveto
            -87 -20 349 callsubr
            15 34 67 64 -7 callsubr
            53 177 callgsubr
            return
          </CharString>
          <CharString index="289">
            -10 -16 -21 -20 333 callgsubr
            return
          </CharString>
          <CharString index="290">
            -159 vlineto
            -79 53 -44 97 vhcurveto
            3 hlineto
            -164 -154 rlineto
            71 hlineto
            174 166 rlineto
            1 1 1 1 hhcurveto
            return
          </CharString>
          <CharString index="291">
            122 callsubr
            -446 204 callgsubr
            return
          </CharString>
          <CharString index="292">
            -135 357 223 rmoveto
            -249 290 rlineto
            87 256 46 -386 165 callsubr
            return
          </CharString>
          <CharString index="293">
            vlineto
            -77 47 -30 87 vhcurveto
            40 hlineto
            63 19 -19 -43 hvcurveto
            -17 vlineto
            -53 -23 -18 -82 -41 -69 6 12 -55 vhcurveto
            endchar
          </CharString>
          <CharString index="294">
            vvcurveto
            206 callsubr
            return
          </CharString>
          <CharString index="295">
            11 callgsubr
            -97 274 callsubr
            return
          </CharString>
          <CharString index="296">
            rmoveto
            -267 -277 rlineto
            69 hlineto
            105 109 return
          </CharString>
          <CharString index="297">
            491 rmoveto
            236 callsubr
            return
          </CharString>
          <CharString index="298">
            38 39 77 hvcurveto
            204 137 vlineto
            return
          </CharString>
          <CharString index="299">
            223 callsubr
            vlineto
            return
          </CharString>
          <CharString index="300">
            rmoveto
            11 callgsubr
            return
          </CharString>
          <CharString index="301">
            -7 -47 hvcurveto
            -74 vlineto
            -136 return
          </CharString>
          <CharString index="302">
            7 -25 -30 7 -42 hhcurveto
            return
          </CharString>
          <CharString index="303">
            vhcurveto
            -414 52 600 return
          </CharString>
          <CharString index="304">
            19 29 73 vhcurveto
            34 return
          </CharString>
          <CharString index="305">
            -32 -4 -6 -20 return
          </CharString>
          <CharString index="306">
            vlineto
            -57 -27 -13 -81 vhcurveto
            -24 -47 270 callgsubr
            99 44 46 6 5 31 vhcurveto
            -92 -47 callsubr
            return
          </CharString>
          <CharString index="307">
            146 callsubr
            -97 -46 -41 -79 hvcurveto
            return
          </CharString>
          <CharString index="308">
            0 13 -28 -46 vvcurveto
            -178 vlineto
            -43 -17 -25 -58 -58 -17 26 42 vhcurveto
            185 235 callsubr
            return
          </CharString>
          <CharString index="309">
            -242 70 710 rmoveto
            -40 -193 rlineto
            34 hlineto
            16 34 42 95 35 vvcurveto
            19 -13 10 -17 vhcurveto
            endchar
          </CharString>
          <CharString index="310">
            447 175 callgsubr
            return
          </CharString>
          <CharString index="311">
            97 vlineto
            46 -17 35 -34 21 vhcurveto
            34 21 17 35 46 vvcurveto
            return
          </CharString>
          <CharString index="312">
            119 callsubr
            18 return
          </CharString>
          <CharString index="313">
            -136 vlineto
            -77 237 callgsubr
            77 vhcurveto
            204 return
          </CharString>
          <CharString index="314">
            344 callsubr
            -27 331 callsubr
            return
          </CharString>
          <CharString index="315">
            -92 -38 -37 -77 hvcurveto
            return
          </CharString>
          <CharString index="316">
            60 10 32 0 vhcurveto
            return
          </CharString>
          <CharString index="317">
            vlineto
            71 -39 45 -80 7 vhcurveto
            94 208 46 -467 -46 207 -94 vlineto
            -80 -7 -37 -46 -70 vvcurveto
            return
          </CharString>
          <CharString index="318">
            9 vlineto
            36 17 25 63 vhcurveto
            18 41 -18 hlineto
            -61 1 -13 24 37 vvcurveto
            9 vlineto
            46 23 16 40 vhcurveto
            return
          </CharString>
          <CharString index="319">
            114 callsubr
            131 143 return
          </CharString>
          <CharString index="320">
            -82 callgsubr
            -99 hlineto
            0 return
          </CharString>
          <CharString index="321">
            vlineto
            0 -10 -24 -49 vvcurveto
            return
          </CharString>
          <CharString index="322">
            hhcurveto
            -80 -48 24 72 hvcurveto
            return
          </CharString>
          <CharString index="323">
            -36 46 -16 vhcurveto
            return
          </CharString>
          <CharString index="324">
            238 264 rmoveto
            -43 -9 -32 -67 -68 -8 31 42 vhcurveto
            79 vlineto
            44 10 26 67 vhcurveto
            75 hlineto
            return
          </CharString>
          <CharString index="325">
            -46 148 769 rmoveto
            -60 5 -67 0 vhcurveto
            0 -41 4 -59 vhcurveto
            -46 vlineto
            59 41 5 0 hvcurveto
            return
          </CharString>
          <CharString index="326">
            49 vlineto
            -7 -31 -33 -101 callgsubr
            58 return
          </CharString>
          <CharString index="327">
            vlineto
            -28 73 rmoveto
            26 10 16 25 24 -10 16 -26 -27 -10 -16 -24 -25 10 -16 27 hvcurveto
            endchar
          </CharString>
          <CharString index="328">
            -69 rlineto
            -53 vlineto
            100 79 rlineto
            -409 44 452 vlineto
            return
          </CharString>
          <CharString index="329">
            vlineto
            156 callgsubr
            -71 return
          </CharString>
          <CharString index="330">
            hhcurveto
            198 callgsubr
            hvcurveto
            -97 return
          </CharString>
          <CharString index="331">
            hhcurveto
            -11 -10 273 callsubr
            return
          </CharString>
          <CharString index="332">
            146 rmoveto
            0 return
          </CharString>
          <CharString index="333">
            vlineto
            -46 -19 -36 -78 -78 -19 36 47 vhcurveto
            166 vlineto
            44 19 28 71 vhcurveto
            120 144 return
          </CharString>
          <CharString index="334">
            178 rmoveto
            -44 -11 -24 -68 -67 -11 25 43 vhcurveto
            112 vlineto
            43 11 318 callsubr
            return
          </CharString>
          <CharString index="335">
            rmoveto
            49 -7 247 callgsubr
            return
          </CharString>
          <CharString index="336">
            -121 -183 121 -183 rlineto
            60 hlineto
            -122 183 122 183 rlineto
            endchar
          </CharString>
          <CharString index="337">
            vlineto
            44 21 29 72 11 16 -1 -1 5 vhcurveto
            47 vlineto
            1 -4 -16 2 -12 hhcurveto
            -98 -47 return
          </CharString>
          <CharString index="338">
            -87 hvcurveto
            -59 52 58 vlineto
            54 31 34 83 39 33 return
          </CharString>
          <CharString index="339">
            -48 -78 212 callgsubr
            return
          </CharString>
          <CharString index="340">
            94 565 rmoveto
            -57 -50 57 -515 58 515 return
          </CharString>
          <CharString index="341">
            vlineto
            43 19 26 71 vhcurveto
            return
          </CharString>
          <CharString index="342">
            vlineto
            43 274 callgsubr
            return
          </CharString>
          <CharString index="343">
            4 -10 -31 10 -47 hhcurveto
            return
          </CharString>
          <CharString index="344">
            226 callgsubr
            vlineto
            return
          </CharString>
          <CharString index="345">
            -58 -7 -13 1 1 -8 vhcurveto
            -54 callsubr
            53 68 hvcurveto
            return
          </CharString>
          <CharString index="346">
            rmoveto
            -43 -11 -25 -67 -68 361 callgsubr
            68 vhcurveto
            78 hlineto
            return
          </CharString>
          <CharString index="347">
            38 304 hmoveto
            50 -86 callgsubr
            -475 -46 77 -361 hlineto
            -77 54 -47 97 return
          </CharString>
          <CharString index="348">
            rmoveto
            -43 -11 -25 -68 -67 361 callgsubr
            67 vhcurveto
            79 hlineto
            return
          </CharString>
          <CharString index="349">
            vlineto
            -72 40 -50 84 3 vhcurveto
            7 12 1 0 hvcurveto
            -2 callgsubr
            return
          </CharString>
          <CharString index="350">
            360 callgsubr
            -10 -16 -24 -25 10 -15 27 hvcurveto
            endchar
          </CharString>
          <CharString index="351">
            vvcurveto
            -136 vlineto
            -53 callsubr
            137 vlineto
            endchar
          </CharString>
          <CharString index="352">
            -78 51 -46 97 return
          </CharString>
          <CharString index="353">
            hlineto
            -85 callgsubr
            -72 297 callsubr
            vhcurveto
            return
          </CharString>
          <CharString index="354">
            rmoveto
            76 callgsubr
          </CharString>
          <CharString index="355">
            -93 vlineto
            -79 -8 -37 -46 -69 vvcurveto
            -264 vlineto
            return
          </CharString>
          <CharString index="356">
            235 callgsubr
            299 callsubr
            return
          </CharString>
          <CharString index="357">
            vlineto
            87 -51 63 -109 vhcurveto
            return
          </CharString>
          <CharString index="358">
            2 25 hhcurveto
            67 12 return
          </CharString>
          <CharString index="359">
            -46 78 -355 return
          </CharString>
          <CharString index="360">
            hhcurveto
            -52 -39 332 callsubr
            27 -20 -35 17 -53 hhcurveto
            -91 -42 -48 -77 hvcurveto
            return
          </CharString>
          <CharString index="361">
            rmoveto
            26 10 16 21 20 -10 16 -26 -27 -9 -16 -20 -21 9 -16 27 hvcurveto
            return
          </CharString>
          <CharString index="362">
            3 7 -27 -45 hvcurveto
            -140 vlineto
            -43 -18 -34 -72 -25 -26 4 6 -21 vhcurveto
            return
          </CharString>
          <CharString index="363">
            -24 -4 343 callsubr
            endchar
          </CharString>
          <CharString index="364">
            107 callsubr
            76 46 return
          </CharString>
          <CharString index="365">
            -30 -50 vhcurveto
            -55 vlineto
            -83 -43 -16 return
          </CharString>
          <CharString index="366">
            56 hlineto
            77 146 rlineto
            return
          </CharString>
          <CharString index="367">
            vlineto
            80 11 callsubr
            return
          </CharString>
          <CharString index="368">
            10 15 21 21 return
          </CharString>
          <CharString index="369">
            rmoveto
            10 -58 -40 -12 -54 26 -79 37 rcurveline
            -65 31 -73 -24 -76 vvcurveto
            -13 return
          </CharString>
          <CharString index="370">
            5 -40 279 callsubr
            return
          </CharString>
          <CharString index="371">
            vvcurveto
            -13 18 callgsubr
            endchar
          </CharString>
          <CharString index="372">
            6 rlinecurve
            -17 callgsubr
            endchar
          </CharString>
          <CharString index="373">
            32 86 hvcurveto
            17 vlineto
            77 -46 32 -88 vhcurveto
            return
          </CharString>
          <CharString index="374">
            106 callgsubr
            23 vhcurveto
            return
          </CharString>
          <CharString index="375">
            196 -274 hlineto
            -196 185 rlineto
            return
          </CharString>
          <CharString index="376" raw="1">
            fc5a15f8 ec0b  
          </CharString>
          <CharString index="377">
            rmoveto
            -27 callgsubr
            return
          </CharString>
          <CharString index="378">
            145 142 104 46 -459 -46 303 -95 -93 hlineto
            -88 -46 return
          </CharString>
          <CharString index="379">
            79 -37 rcurveline
            66 -30 72 23 77 vvcurveto
            12 -3 12 0 vhcurveto
            endchar
          </CharString>
          <CharString index="380">
            -1 -1 -7 hvcurveto
            return
          </CharString>
          <CharString index="381">
            -50 -50 -77 hvcurveto
            return
          </CharString>
          <CharString index="382">
            42 8 9 28 return
          </CharString>
          <CharString index="383">
            310 vlineto
            -42 -310 rmoveto
            -145 hlineto
            145 276 rlineto
            return
          </CharString>
          <CharString index="384">
            -97 -65 vlineto
            354 callsubr
            -249 vlineto
            -88 64 -49 98 return
          </CharString>
          <CharString index="385">
            -77 44 -39 83 -34 callgsubr
            -45 callgsubr
            return
          </CharString>
          <CharString index="386">
            hhcurveto
            -100 -55 232 callsubr
            return
          </CharString>
          <CharString index="387">
            250 311 callsubr
            return
          </CharString>
          <CharString index="388">
            312 callgsubr
            endchar
          </CharString>
          <CharString index="389">
            -46 77 -356 hlineto
            -77 47 -52 104 return
          </CharString>
          <CharString index="390">
            -44 -20 -33 -72 -73 -19 33 44 vhcurveto
            return
          </CharString>
          <CharString index="391">
            hlineto
            317 callgsubr
            return
          </CharString>
          <CharString index="392">
            hhcurveto
            -97 274 callsubr
            -178 vlineto
            return
          </CharString>
          <CharString index="393">
            vlineto
            -7 -31 -20 356 callgsubr
            return
          </CharString>
          <CharString index="394">
            30 367 callsubr
            271 callgsubr
            return
          </CharString>
          <CharString index="395">
            107 hlineto
            75 28 -39 -61 hvcurveto
            return
          </CharString>
          <CharString index="396">
            vhcurveto
            329 callgsubr
            return
          </CharString>
          <CharString index="397">
            -450 hlineto
            -8 -24 -40 -8 return
          </CharString>
          <CharString index="398">
            7 234 callsubr
            return
          </CharString>
          <CharString index="399">
            hlineto
            168 callsubr
            return
          </CharString>
          <CharString index="400">
            vlineto
            44 12 24 67 vhcurveto
            return
          </CharString>
          <CharString index="401">
            vlineto
            81 11 callsubr
            return
          </CharString>
          <CharString index="402">
            rmoveto
            1 12 -28 -46 hvcurveto
            return
          </CharString>
          <CharString index="403">
            -9 -1 -1 -8 hvcurveto
            return
          </CharString>
          <CharString index="404">
            -25 -25 4 6 -21 return
          </CharString>
          <CharString index="405">
            -600 52 600 return
          </CharString>
          <CharString index="406">
            -68 -21 29 44 hvcurveto
            return
          </CharString>
          <CharString index="407">
            49 vlineto
            -10 -35 return
          </CharString>
          <CharString index="408">
            49 241 -49 return
          </CharString>
          <CharString index="409">
            33 7 9 31 vhcurveto
            300 callsubr
            -35 -7 -44 hhcurveto
            -74 return
          </CharString>
          <CharString index="410">
            381 3 callgsubr
            return
          </CharString>
          <CharString index="411">
            6 -37 -37 72 -9 5 -335 rlineto
            -70 44 -67 92 vhcurveto
            return
          </CharString>
          <CharString index="412">
            33 72 72 0 callgsubr
            -72 return
          </CharString>
          <CharString index="413">
            2 10 1 11 12 -63 callgsubr
            return
          </CharString>
          <CharString index="414">
            48 vlineto
            -72 -2 return
          </CharString>
          <CharString index="415">
            -25 33 44 hvcurveto
            return
          </CharString>
          <CharString index="416">
            -152 327 646 rmoveto
            -358 -46 358 hlineto
            return
          </CharString>
          <CharString index="417">
            vhcurveto
            -149 -130 rlineto
            67 hlineto
            156 139 rlineto
            return
          </CharString>
          <CharString index="418">
            rmoveto
            174 callgsubr
            return
          </CharString>
          <CharString index="419">
            201 504 rmoveto
            -97 -45 -43 -77 hvcurveto
            -167 vlineto
            return
          </CharString>
          <CharString index="420">
            -58 -17 26 42 vhcurveto
            184 vlineto
            43 17 25 58 vhcurveto
            return
          </CharString>
          <CharString index="421">
            rmoveto
            -43 -11 -25 -67 -67 -12 25 43 vhcurveto
            125 vlineto
            return
          </CharString>
          <CharString index="422">
            -3 vhcurveto
            27 -12 -28 19 -55 hhcurveto
            237 99 rmoveto
            48 return
          </CharString>
          <CharString index="423">
            -179 40 347 rmoveto
            -47 139 47 vlineto
            endchar
          </CharString>
          <CharString index="424">
            -47 224 callsubr
            return
          </CharString>
          <CharString index="425">
            25 67 vhcurveto
            79 hlineto
            return
          </CharString>
          <CharString index="426">
            60 38 6 10 25 return
          </CharString>
          <CharString index="427">
            -194 rmoveto
            -6 -15 return
          </CharString>
          <CharString index="428">
            -43 -39 -77 hvcurveto
            return
          </CharString>
          <CharString index="429">
            -47 91 hlineto
            0 -10 195 callgsubr
            return
          </CharString>
          <CharString index="430">
            vlineto
            165 callgsubr
            193 return
          </CharString>
          <CharString index="431">
            285 callgsubr
            -136 vlineto
            return
          </CharString>
          <CharString index="432">
            hlineto
            16 34 42 95 34 vvcurveto
            20 -13 10 -17 vhcurveto
            return
          </CharString>
          <CharString index="433">
            vlineto
            -186 142 rlineto
            40 3 22 26 68 hhcurveto
            return
          </CharString>
          <CharString index="434">
            vlineto
            -81 51 -47 97 47 40 10 4 9 vhcurveto
            -86 return
          </CharString>
          <CharString index="435">
            vlineto
            -204 147 rlineto
            50 44 38 32 77 vvcurveto
            return
          </CharString>
          <CharString index="436">
            rmoveto
            -47 callsubr
            return
          </CharString>
          <CharString index="437">
            hlineto
            -99 -50 -48 -77 hvcurveto
            return
          </CharString>
          <CharString index="438">
            46 -90 -90 -32 -45 -83 return
          </CharString>
          <CharString index="439">
            -16 -28 -21 hvcurveto
            return
          </CharString>
          <CharString index="440">
            31 -25 -57 hvcurveto
            return
          </CharString>
          <CharString index="441">
            hlineto
            -24 -165 rlineto
            50 hlineto
            24 165 rlineto
            return
          </CharString>
          <CharString index="442">
            127 284 callsubr
            return
          </CharString>
          <CharString index="443">
            114 callgsubr
            101 46 return
          </CharString>
          <CharString index="444">
            25 26 -18 19 -26 -25 -19 -19 -26 -25 19 return
          </CharString>
          <CharString index="445">
            -46 290 -97 -65 hlineto
            -97 -48 -42 -79 hvcurveto
            return
          </CharString>
          <CharString index="446">
            1 0 hvcurveto
            307 callsubr
            -20 29 44 vvcurveto
            return
          </CharString>
          <CharString index="447">
            -36 39 81 hvcurveto
            1 vlineto
            80 53 34 82 hvcurveto
            return
          </CharString>
          <CharString index="448">
            13 48 46 vvcurveto
            86 vlineto
            51 -11 20 0 vhcurveto
            return
          </CharString>
          <CharString index="449">
            183 callgsubr
            -259 -47 return
          </CharString>
          <CharString index="450">
            -34 330 callgsubr
            return
          </CharString>
          <CharString index="451">
            271 callgsubr
            56 vlineto
            82 return
          </CharString>
          <CharString index="452">
            rmoveto
            -4 -14 -28 -6 -33 hhcurveto
            return
          </CharString>
          <CharString index="453">
            99 vlineto
            81 51 34 84 hvcurveto
            return
          </CharString>
          <CharString index="454">
            40 hhcurveto
            51 333 callsubr
            return
          </CharString>
          <CharString index="455">
            353 rmoveto
            -353 vlineto
            -44 return
          </CharString>
          <CharString index="456">
            44 58 hvcurveto
            203 vlineto
            43 return
          </CharString>
          <CharString index="457">
            -79 vlineto
            208 callsubr
            return
          </CharString>
          <CharString index="458">
            -78 vlineto
            -93 -38 -37 -77 hvcurveto
            return
          </CharString>
          <CharString index="459">
            330 600 rmoveto
            return
          </CharString>
          <CharString index="460">
            265 51 -208 return
          </CharString>
          <CharString index="461">
            -98 -46 -44 -77 hvcurveto
            return
          </CharString>
          <CharString index="462">
            7 6 24 vhcurveto
            -98 return
          </CharString>
          <CharString index="463">
            vhcurveto
            134 145 return
          </CharString>
          <CharString index="464">
            27 -4 -5 23 vhcurveto
            return
          </CharString>
          <CharString index="465">
            -46 -12 -16 -39 return
          </CharString>
          <CharString index="466">
            -64 35 -42 62 -16 vhcurveto
            -81 -29 -29 -87 return
          </CharString>
          <CharString index="467">
            vlineto
            0 25 11 31 67 12 -29 -45 vhcurveto
            return
          </CharString>
          <CharString index="468">
            rmoveto
            80 callgsubr
            366 return
          </CharString>
          <CharString index="469">
            -45 10 216 callsubr
            358 callsubr
            return
          </CharString>
          <CharString index="470">
            rmoveto
            -60 -23 25 42 3 1 40 3 hvcurveto
            return
          </CharString>
          <CharString index="471">
            -32 callsubr
            -52 -21 -17 return
          </CharString>
          <CharString index="472">
            -25 9 -15 27 hvcurveto
            endchar
          </CharString>
          <CharString index="473">
            50 67 88 vhcurveto
            return
          </CharString>
          <CharString index="474">
            vlineto
            116 59 return
          </CharString>
        <CharString name=".notdef">
          357 178 hmoveto
          394 701 -394 hlineto
          57 -52 rmoveto
          281 -597 -281 hlineto
          endchar
        </CharString>
        <CharString name="A">
          36 351 hmoveto
          59 -44 callsubr
          -12 52 160 callgsubr
        </CharString>
        <CharString name="AE">
          255 354 244 rmoveto
          -172 hlineto
          172 380 rlineto
          -624 vmoveto
          281 51 -224 260 195 51 -195 255 224 51 -316 hlineto
          -310 -668 rlineto
          62 hlineto
          87 192 rlineto
          196 hlineto
          endchar
        </CharString>
        <CharString name="Aacute">
          36 351 hmoveto
          59 -44 callsubr
          -75 624 rmoveto
          -37 -106 rlineto
          40 hlineto
          56 106 rlineto
          4 -572 160 callgsubr
        </CharString>
        <CharString name="Abreve">
          36 351 hmoveto
          59 -44 callsubr
          -12 52 107 callgsubr
          62 210 16 callsubr
          endchar
        </CharString>
        <CharString name="Acircumflex">
          36 351 hmoveto
          59 -44 callsubr
          -12 52 107 callgsubr
          37 104 -32 callgsubr
        </CharString>
        <CharString name="Adieresis">
          36 149 727 -89 callsubr
          73 -727 rmoveto
          59 -44 callsubr
          -12 52 160 callgsubr
        </CharString>
        <CharString name="Agrave">
          36 351 hmoveto
          59 -44 callsubr
          -176 624 rmoveto
          56 -106 rlineto
          40 hlineto
          -37 106 rlineto
          105 -572 160 callgsubr
        </CharString>
        <CharString name="Amacron">
          36 351 hmoveto
          59 -44 callsubr
          -202 592 rmoveto
          -42 214 42 vlineto
          -24 -540 160 callgsubr
        </CharString>
        <CharString name="Aogonek">
          36 375 hmoveto
          -23 callsubr
          2 -44 callsubr
          43 -192 rlineto
          -55 244 160 callgsubr
        </CharString>
        <CharString name="Aring">
          36 351 hmoveto
          59 -44 callsubr
          -94 534 rmoveto
          -23 -13 15 22 22 13 14 23 23 13 -14 -22 -22 -13 -15 -23 hvcurveto
          -35 vmoveto
          47 26 33 39 40 -26 31 -47 -46 -27 -31 -40 -39 27 -33 46 hvcurveto
          82 -447 160 callgsubr
        </CharString>
        <CharString name="Atilde">
          36 351 hmoveto
          59 -44 callsubr
          -12 52 107 callgsubr
          80 200 -63 callsubr
        </CharString>
        <CharString name="B">
          70 239 310 rmoveto
          75 29 -39 -61 hvcurveto
          -59 vlineto
          -61 -29 -39 -75 vhcurveto
          -109 259 hlineto
          103 307 rmoveto
          75 29 -39 -61 hvcurveto
          -55 vlineto
          -62 -29 -39 -75 vhcurveto
          -103 256 hlineto
          -57 -617 rmoveto
          168 hlineto
          110 50 62 89 hvcurveto
          58 vlineto
          62 -26 46 -55 20 vhcurveto
          51 21 24 45 60 vvcurveto
          54 vlineto
          89 -50 62 -110 vhcurveto
          -162 hlineto
          endchar
        </CharString>
        <CharString name="C">
          -2 63 133 rmoveto
          -86 53 -52 120 44 44 7 9 28 vhcurveto
          -5 callsubr
          endchar
        </CharString>
        <CharString name="CR">
          -393 endchar
        </CharString>
        <CharString name="Cacute">
          -2 63 133 rmoveto
          -86 53 -52 120 44 44 7 9 28 vhcurveto
          -5 callsubr
          176 281 -43 callsubr
        </CharString>
        <CharString name="Ccaron">
          -2 63 133 rmoveto
          -86 53 -52 120 44 44 7 9 28 vhcurveto
          -5 callsubr
          196 281 -56 callsubr
        </CharString>
        <CharString name="Ccedilla">
          -2 63 133 rmoveto
          -78 44 -50 97 -9 vhcurveto
          -13 -64 59 callsubr
          8 35 rlineto
          42 44 7 9 28 hvcurveto
          -5 callsubr
          endchar
        </CharString>
        <CharString name="D">
          68 7 callsubr
          91 callgsubr
          566 288 callsubr
          endchar
        </CharString>
        <CharString name="Dcaron">
          68 340 152 rmoveto
          -61 -28 -40 -75 vhcurveto
          -107 566 288 callsubr
          -267 151 rmoveto
          -668 166 vlineto
          110 49 64 87 hvcurveto
          367 vlineto
          87 -50 63 -110 vhcurveto
          21 148 -56 callsubr
        </CharString>
        <CharString name="Dcroat">
          68 74 668 rmoveto
          -308 -61 -51 61 -309 91 callgsubr
          258 109 51 -109 257 288 callsubr
          endchar
        </CharString>
        <CharString name="E">
          -39 callgsubr
          endchar
        </CharString>
        <CharString name="Eacute">
          -39 callgsubr
          -121 148 -43 callsubr
        </CharString>
        <CharString name="Ecaron">
          -39 callgsubr
          -103 148 -56 callsubr
        </CharString>
        <CharString name="Ecircumflex">
          -39 callgsubr
          -111 42 -32 callgsubr
        </CharString>
        <CharString name="Edieresis">
          -39 callgsubr
          -203 59 -89 callsubr
          endchar
        </CharString>
        <CharString name="Edotaccent">
          -39 callgsubr
          -135 85 33 callsubr
        </CharString>
        <CharString name="Egrave">
          -39 callgsubr
          -216 148 62 callgsubr
        </CharString>
        <CharString name="Emacron">
          -39 callgsubr
          -246 116 116 callsubr
        </CharString>
        <CharString name="Eogonek">
          156 callsubr
          247 vlineto
          -23 callsubr
          1 51 -224 260 196 51 -196 255 224 51 hlineto
          endchar
        </CharString>
        <CharString name="Eth">
          68 74 668 rmoveto
          -315 -76 -51 76 -302 91 callgsubr
          251 117 51 -117 264 288 callsubr
          endchar
        </CharString>
        <CharString name="Euro">
          2 66 133 rmoveto
          -86 53 -52 120 44 44 7 9 28 vhcurveto
          54 vlineto
          -9 -30 -44 -8 -42 hhcurveto
          -90 -26 33 53 hvcurveto
          117 164 45 -164 88 164 44 -164 106 vlineto
          53 26 33 90 42 42 -8 -9 30 vhcurveto
          54 vlineto
          8 -28 -41 8 -45 hhcurveto
          -120 -53 -52 -86 hvcurveto
          -107 -52 -44 52 -88 -52 -45 52 vlineto
          endchar
        </CharString>
        <CharString name="F">
          -28 7 callsubr
          57 300 206 51 -206 266 215 51 vlineto
          endchar
        </CharString>
        <CharString name="G">
          -6 callgsubr
          endchar
        </CharString>
        <CharString name="Gbreve">
          -6 callgsubr
          224 286 16 callsubr
          endchar
        </CharString>
        <CharString name="H">
          96 357 668 rmoveto
          -315 -227 315 -57 -668 57 302 227 -302 59 668 vlineto
          endchar
        </CharString>
        <CharString name="I">
          -190 7 callsubr
          57 668 vlineto
          endchar
        </CharString>
        <CharString name="Iacute">
          -190 7 callsubr
          57 668 vlineto
          -14 148 -43 callsubr
        </CharString>
        <CharString name="Icircumflex">
          -190 7 callsubr
          57 668 vlineto
          12 42 -32 callgsubr
        </CharString>
        <CharString name="Idieresis">
          -190 7 callsubr
          57 668 vlineto
          -94 59 -89 callsubr
          endchar
        </CharString>
        <CharString name="Idotaccent">
          -190 7 callsubr
          57 668 vlineto
          -31 85 33 callsubr
        </CharString>
        <CharString name="Igrave">
          -190 7 callsubr
          57 668 vlineto
          -102 148 62 callgsubr
        </CharString>
        <CharString name="Imacron">
          -190 7 callsubr
          57 668 vlineto
          -134 116 116 callsubr
        </CharString>
        <CharString name="Iogonek">
          -190 7 callsubr
          24 vlineto
          -23 callsubr
          668 vlineto
          endchar
        </CharString>
        <CharString name="J">
          -189 73 668 rmoveto
          -473 vlineto
          -100 -13 -63 -22 -75 vhcurveto
          -30 -106 rlineto
          59 hlineto
          31 105 rlineto
          16 56 17 70 114 vvcurveto
          472 vlineto
          endchar
        </CharString>
        <CharString name="K">
          153 callgsubr
          endchar
        </CharString>
        <CharString name="L">
          188 callgsubr
          endchar
        </CharString>
        <CharString name="Lacute">
          188 callgsubr
          -14 148 -43 callsubr
        </CharString>
        <CharString name="Lcaron">
          -50 199 714 119 callsubr
          17 -12 8 -13 vhcurveto
          -151 -46 rmoveto
          -668 353 callsubr
          617 vlineto
          endchar
        </CharString>
        <CharString name="Lslash">
          -50 74 668 rmoveto
          -337 vlineto
          -56 -30 rlineto
          -49 vlineto
          56 30 rlineto
          -282 353 callsubr
          262 vlineto
          99 54 rlineto
          49 vlineto
          -99 -54 rlineto
          306 vlineto
          endchar
        </CharString>
        <CharString name="M">
          212 458 668 rmoveto
          -156 -432 -157 432 rlineto
          -72 -668 54 374 hlineto
          104 -5 94 0 vhcurveto
          146 -392 rlineto
          68 hlineto
          145 392 rlineto
          0 -4 -82 -117 vvcurveto
          -373 55 668 vlineto
          endchar
        </CharString>
        <CharString name="N">
          -54 callgsubr
          endchar
        </CharString>
        <CharString name="NULL">
          -393 endchar
        </CharString>
        <CharString name="Nacute">
          -54 callgsubr
          -153 148 -43 callsubr
        </CharString>
        <CharString name="Ncaron">
          -54 callgsubr
          -136 148 -56 callsubr
        </CharString>
        <CharString name="Ntilde">
          -54 callgsubr
          -92 138 -63 callsubr
        </CharString>
        <CharString name="O">
          -78 callsubr
          endchar
        </CharString>
        <CharString name="OE">
          270 244 51 rmoveto
          -76 -28 40 61 hvcurveto
          365 vlineto
          61 28 39 76 vhcurveto
          108 -566 hlineto
          -110 -51 rmoveto
          391 51 -224 260 196 51 -196 255 224 51 -390 hlineto
          -110 -50 -63 -87 hvcurveto
          -367 vlineto
          -87 48 -64 111 vhcurveto
          endchar
        </CharString>
        <CharString name="Oacute">
          -78 callsubr
          -89 294 -43 callsubr
        </CharString>
        <CharString name="Ocircumflex">
          58 331 146 rmoveto
          -62 -29 -42 -76 -77 -29 42 62 vhcurveto
          376 vlineto
          62 29 42 77 76 29 -42 -62 vhcurveto
          -268 -377 rmoveto
          -88 50 -67 113 112 366 callsubr
          378 vlineto
          88 -50 67 -112 -113 -50 -67 -88 vhcurveto
          197 187 -32 callgsubr
        </CharString>
        <CharString name="Odieresis">
          -78 callsubr
          -170 205 -89 callsubr
          endchar
        </CharString>
        <CharString name="Ograve">
          -78 callsubr
          -189 294 62 callgsubr
        </CharString>
        <CharString name="Ohungarumlaut">
          -78 callsubr
          -48 294 53 callgsubr
          endchar
        </CharString>
        <CharString name="Omacron">
          -78 callsubr
          -211 262 116 callsubr
        </CharString>
        <CharString name="Oslash">
          58 63 145 rmoveto
          -34 7 -30 15 -25 vhcurveto
          -23 -56 rlineto
          48 hlineto
          8 20 rlineto
          -19 26 36 -11 46 hhcurveto
          112 50 67 88 hvcurveto
          378 vlineto
          34 -7 30 -15 25 vhcurveto
          23 56 rlineto
          -48 hlineto
          -8 -20 rlineto
          19 -26 -36 11 -45 hhcurveto
          -113 -50 -67 -88 hvcurveto
          57 -377 rmoveto
          376 vlineto
          62 29 42 77 40 27 -12 -20 17 vhcurveto
          -190 -455 rlineto
          2 0 3 2 vvcurveto
          106 -104 rmoveto
          -41 -27 12 20 -17 hvcurveto
          190 455 rlineto
          -7 0 0 0 vhcurveto
          -376 vlineto
          -62 -29 -42 -76 vhcurveto
          endchar
        </CharString>
        <CharString name="Otilde">
          -78 callsubr
          -31 284 -63 callsubr
        </CharString>
        <CharString name="P">
          41 7 callsubr
          57 236 96 vlineto
          109 51 63 87 hvcurveto
          132 250 callsubr
          102 -280 rmoveto
          -62 -28 -39 -76 vhcurveto
          -94 330 94 hlineto
          76 28 -39 -62 hvcurveto
          endchar
        </CharString>
        <CharString name="Q">
          58 331 146 rmoveto
          -62 -29 -42 -76 -77 -29 42 62 vhcurveto
          376 vlineto
          62 29 42 77 76 29 -42 -62 vhcurveto
          -268 -377 rmoveto
          -88 50 -67 113 17 16 2 3 14 vhcurveto
          87 -98 rlineto
          73 hlineto
          -107 119 rlineto
          42 27 20 47 55 vvcurveto
          378 vlineto
          88 -50 67 -112 -113 -50 -67 -88 vhcurveto
          endchar
        </CharString>
        <CharString name="R">
          59 -41 callgsubr
          endchar
        </CharString>
        <CharString name="Racute">
          59 7 callsubr
          57 273 97 vlineto
          6 5 0 1 5 hvcurveto
          99 -274 rlineto
          63 hlineto
          -105 285 rlineto
          59 22 27 51 66 vvcurveto
          94 250 callsubr
          19 148 rmoveto
          -37 -106 rlineto
          40 hlineto
          56 106 rlineto
          24 -392 rmoveto
          -62 -28 -36 -76 vhcurveto
          -94 291 94 hlineto
          75 29 -39 -61 hvcurveto
          endchar
        </CharString>
        <CharString name="Rcaron">
          59 -41 callgsubr
          -70 299 -56 callsubr
        </CharString>
        <CharString name="S">
          -82 callsubr
          endchar
        </CharString>
        <CharString name="Sacute">
          -82 callsubr
          177 279 -43 callsubr
        </CharString>
        <CharString name="Scaron">
          -82 callsubr
          203 279 -56 callsubr
        </CharString>
        <CharString name="T">
          111 callsubr
          endchar
        </CharString>
        <CharString name="Tcaron">
          111 callsubr
          -126 148 -56 callsubr
        </CharString>
        <CharString name="Thorn">
          32 234 492 rmoveto
          75 29 -38 -62 hvcurveto
          -116 vlineto
          -62 -29 -37 -75 vhcurveto
          -94 315 hlineto
          -57 176 rmoveto
          -668 57 124 95 vlineto
          110 50 63 88 hvcurveto
          118 vlineto
          88 -50 63 -110 vhcurveto
          -95 124 hlineto
          endchar
        </CharString>
        <CharString name="U">
          68 335 668 -57 callgsubr
          endchar
        </CharString>
        <CharString name="Uacute">
          68 335 668 -57 callgsubr
          -145 148 -43 callsubr
        </CharString>
        <CharString name="Ucircumflex">
          68 335 668 -57 callgsubr
          -128 42 -32 callgsubr
        </CharString>
        <CharString name="Udieresis">
          68 335 668 -57 callgsubr
          -228 59 -89 callsubr
          endchar
        </CharString>
        <CharString name="Ugrave">
          68 335 668 -57 callgsubr
          -239 148 62 callgsubr
        </CharString>
        <CharString name="Uhungarumlaut">
          68 280 816 53 callgsubr
          78 -148 -57 callgsubr
          endchar
        </CharString>
        <CharString name="Umacron">
          68 335 668 -57 callgsubr
          -270 116 116 callsubr
        </CharString>
        <CharString name="Uogonek">
          68 335 668 rmoveto
          -522 vlineto
          -62 -28 -42 -77 -76 -29 42 62 vhcurveto
          522 -57 -523 vlineto
          -88 50 -67 112 13 12 1 2 11 vhcurveto
          -24 -25 -15 -33 -31 vvcurveto
          -44 27 -22 52 vhcurveto
          13 44 -12 hlineto
          -25 -13 9 27 31 17 34 29 24 hvcurveto
          54 25 24 52 61 vvcurveto
          523 vlineto
          endchar
        </CharString>
        <CharString name="Uring">
          68 335 668 -57 callgsubr
          -160 23 5 callgsubr
        </CharString>
        <CharString name="V">
          15 334 668 rmoveto
          -74 -339 -18 -90 -20 -97 -18 -83 rlinecurve
          -17 83 -20 96 -19 90 -74 340 rcurveline
          -60 hlineto
          149 -668 rlineto
          82 hlineto
          149 668 rlineto
          endchar
        </CharString>
        <CharString name="W">
          218 530 668 rmoveto
          -71 -429 rlineto
          -11 -70 -14 -106 0 vvcurveto
          0 -15 106 -11 70 vhcurveto
          -70 429 rlineto
          -64 hlineto
          -71 -428 rlineto
          -14 -89 -11 -89 0 vvcurveto
          0 -12 90 -14 87 vhcurveto
          -71 429 rlineto
          -58 hlineto
          114 -668 rlineto
          78 hlineto
          59 346 rlineto
          22 123 9 109 0 vvcurveto
          0 10 -106 23 -127 vhcurveto
          59 -345 rlineto
          77 hlineto
          114 668 rlineto
          endchar
        </CharString>
        <CharString name="X">
          -14 302 668 rmoveto
          -112 -267 -113 267 rlineto
          -63 hlineto
          145 -334 -145 -334 rlineto
          63 hlineto
          113 266 112 -266 rlineto
          63 hlineto
          -146 334 146 334 rlineto
          endchar
        </CharString>
        <CharString name="Y">
          115 callgsubr
          endchar
        </CharString>
        <CharString name="Yacute">
          115 callgsubr
          -179 148 -43 callsubr
        </CharString>
        <CharString name="Ydieresis">
          4 128 727 -89 callsubr
          76 -59 rmoveto
          -73 -196 -21 -60 -20 -56 -19 -56 rlinecurve
          -21 56 -19 57 -22 60 -74 195 rcurveline
          -59 hlineto
          165 -439 rlineto
          -229 57 229 vlineto
          165 439 rlineto
          endchar
        </CharString>
        <CharString name="Z">
          40 callsubr
          endchar
        </CharString>
        <CharString name="Zacute">
          40 callsubr
          -143 148 -43 callsubr
        </CharString>
        <CharString name="Zcaron">
          40 callsubr
          -119 148 -56 callsubr
        </CharString>
        <CharString name="Zdotaccent">
          40 callsubr
          -161 85 33 callsubr
        </CharString>
        <CharString name="a">
          -100 callsubr
          endchar
        </CharString>
        <CharString name="aacute">
          -100 callsubr
          -76 430 -43 callsubr
        </CharString>
        <CharString name="abreve">
          -100 callsubr
          -25 430 16 callsubr
          endchar
        </CharString>
        <CharString name="acircumflex">
          -100 callsubr
          -49 324 -32 callgsubr
        </CharString>
        <CharString name="acute">
          -43 164 716 -43 callsubr
        </CharString>
        <CharString name="adieresis">
          -100 callsubr
          -154 341 -89 callsubr
          endchar
        </CharString>
        <CharString name="ae">
          256 189 570 rmoveto
          -51 -50 -9 -9 -28 hvcurveto
          -56 vlineto
          10 30 51 10 47 hhcurveto
          90 21 -31 -53 hvcurveto
          -93 vlineto
          -145 -41 rlineto
          -84 -24 -36 -45 -66 vvcurveto
          -32 vlineto
          -83 42 -52 99 61 61 20 30 35 vhcurveto
          -34 29 52 -17 74 hhcurveto
          306 callgsubr
          -93 -39 33 61 hvcurveto
          109 262 170 vlineto
          86 -46 68 -112 -63 -44 -28 -30 -23 vhcurveto
          34 -25 -46 19 -70 hhcurveto
          110 -486 rmoveto
          -23 -26 -43 -16 -50 hhcurveto
          -66 -24 29 56 hvcurveto
          31 vlineto
          45 18 26 66 19 vhcurveto
          125 35 rlineto
          263 15 rmoveto
          -206 119 hlineto
          61 29 43 75 75 27 -43 -61 vhcurveto
          endchar
        </CharString>
        <CharString name="agrave">
          -100 callsubr
          -169 430 62 callgsubr
        </CharString>
        <CharString name="amacron">
          -100 callsubr
          -201 398 116 callsubr
        </CharString>
        <CharString name="ampersand">
          56 224 42 rmoveto
          -76 -37 42 62 hvcurveto
          68 vlineto
          60 26 43 72 vhcurveto
          126 -171 hlineto
          -62 -35 -42 -76 vhcurveto
          -170 430 rmoveto
          -63 24 -46 54 -20 vhcurveto
          -54 -21 -25 -46 -61 vvcurveto
          -70 vlineto
          -87 59 -68 112 113 55 68 87 vhcurveto
          172 41 52 -41 57 -57 -57 -128 vlineto
          -72 -23 42 61 hvcurveto
          53 vlineto
          53 25 40 100 48 46 -9 -11 31 vhcurveto
          57 vlineto
          9 -28 -46 9 -51 hhcurveto
          -130 -53 -61 -86 hvcurveto
          endchar
        </CharString>
        <CharString name="aogonek">
          30 60 496 rmoveto
          10 30 51 10 47 hhcurveto
          90 21 -31 -54 hvcurveto
          -92 vlineto
          -145 -41 rlineto
          -84 -24 -36 -45 -66 vvcurveto
          -32 vlineto
          -83 41 -52 98 68 29 20 24 29 vhcurveto
          -40 22 vlineto
          -23 callsubr
          1 431 hlineto
          87 -47 52 -119 -51 -50 -9 -9 -28 vhcurveto
          239 -463 rmoveto
          -23 -26 -43 -21 -50 hhcurveto
          -67 -23 29 56 hvcurveto
          31 vlineto
          45 18 26 66 19 vhcurveto
          125 35 rlineto
          endchar
        </CharString>
        <CharString name="apostrophemod">
          202 callsubr
        </CharString>
        <CharString name="approxequal">
          44 346 315 rmoveto
          10 -58 -40 -12 -54 27 -79 37 rcurveline
          -65 30 -73 -23 -77 vvcurveto
          -12 3 -12 0 vhcurveto
          44 hlineto
          -10 58 44 10 50 -24 79 -37 rcurveline
          66 -31 72 23 77 vvcurveto
          13 -3 11 0 vhcurveto
          -44 138 262 callsubr
          3 -11 0 vhcurveto
          44 hlineto
          -10 58 44 10 50 -25 272 callsubr
        </CharString>
        <CharString name="aring">
          -100 callsubr
          -90 305 5 callgsubr
        </CharString>
        <CharString name="asciicircum">
          -96 234 376 rmoveto
          54 hlineto
          -101 275 rlineto
          -81 hlineto
          -102 -275 rlineto
          54 hlineto
          88 247 rlineto
          endchar
        </CharString>
        <CharString name="asciitilde">
          1 324 387 262 callsubr
          2 -11 0 vhcurveto
          45 hlineto
          -10 58 43 9 51 -24 272 callsubr
        </CharString>
        <CharString name="asterisk">
          92 220 776 rmoveto
          -103 vlineto
          -26 4 -18 5 -11 vhcurveto
          -9 8 -16 10 -25 8 -98 31 rcurveline
          -14 -46 98 -32 24 -8 18 -1 13 1 rlinecurve
          -11 -7 -14 -12 -15 -21 -60 -83 rcurveline
          39 -28 60 84 15 21 7 16 3 12 rlinecurve
          3 -12 7 -17 16 -21 61 -83 rcurveline
          39 28 -62 84 -15 21 -14 12 -10 6 rlinecurve
          12 -1 19 2 25 8 98 32 rcurveline
          -16 46 -98 -33 -25 -8 -16 -10 -9 -8 rlinecurve
          5 12 4 17 27 vvcurveto
          103 vlineto
          endchar
        </CharString>
        <CharString name="at">
          454 427 -109 rmoveto
          85 48 -85 hlineto
          -224 -75 124 209 209 75 124 224 225 75 -114 -209 -158 -41 -45 -56 -48 -23 22 58 hvcurveto
          225 vlineto
          73 -38 51 -93 -42 -44 -7 -9 -36 vhcurveto
          -49 vlineto
          12 55 28 5 39 hhcurveto
          64 16 -31 -45 hvcurveto
          -55 vlineto
          -107 -33 rlineto
          -71 -22 -49 -27 -76 vvcurveto
          -12 vlineto
          -74 47 -40 78 68 38 23 11 14 vhcurveto
          -29 17 33 -19 53 hhcurveto
          95 56 69 182 239 -95 132 -258 -254 -98 -142 -239 -239 94 -142 258 hvcurveto
          81 232 rmoveto
          0 -35 -32 -65 -44 -28 18 49 vhcurveto
          13 vlineto
          53 28 12 47 14 vhcurveto
          97 29 rlineto
          endchar
        </CharString>
        <CharString name="atilde">
          -100 callsubr
          -14 420 -63 callsubr
        </CharString>
        <CharString name="b">
          52 73 716 rmoveto
          -716 161 vlineto
          88 60 52 96 hvcurveto
          287 vlineto
          85 -52 48 -83 -46 -47 -16 -10 -25 vhcurveto
          174 vlineto
          195 -566 rmoveto
          -68 -37 -30 -66 vhcurveto
          -91 435 hlineto
          14 36 38 13 39 hhcurveto
          51 30 -25 -57 hvcurveto
          endchar
        </CharString>
        <CharString name="backslash">
          -17 32 772 rmoveto
          269 -897 rlineto
          51 hlineto
          -269 897 rlineto
          endchar
        </CharString>
        <CharString name="bar">
          -188 79 791 rmoveto
          -935 47 935 vlineto
          endchar
        </CharString>
        <CharString name="braceleft">
          -52 191 651 rmoveto
          42 22 29 66 vhcurveto
          10 49 -11 hlineto
          -89 -50 -46 -75 hvcurveto
          -230 vlineto
          -43 -26 -30 -51 vhcurveto
          -2 -48 2 hlineto
          51 26 -29 -44 hvcurveto
          -230 vlineto
          -75 50 -46 89 vhcurveto
          11 49 -10 hlineto
          -66 -22 29 42 hvcurveto
          210 vlineto
          70 -18 41 -67 7 vhcurveto
          67 8 18 41 70 vvcurveto
          endchar
        </CharString>
        <CharString name="braceright">
          -52 279 347 rmoveto
          -52 -26 30 43 hvcurveto
          230 vlineto
          75 -49 46 -89 vhcurveto
          -12 -49 10 hlineto
          67 22 -29 -42 hvcurveto
          -209 vlineto
          -70 17 -41 68 -8 vhcurveto
          -68 -7 -17 -41 -70 vvcurveto
          -210 vlineto
          -42 -22 -29 -67 vhcurveto
          -10 -49 12 hlineto
          89 49 46 75 hvcurveto
          230 vlineto
          44 26 29 52 vhcurveto
          2 48 hlineto
          endchar
        </CharString>
        <CharString name="bracketleft">
          -110 81 772 rmoveto
          -897 174 46 -124 805 124 46 vlineto
          endchar
        </CharString>
        <CharString name="bracketright">
          -110 27 772 rmoveto
          -46 124 -805 -124 -46 175 897 vlineto
          endchar
        </CharString>
        <CharString name="breve">
          -43 237 716 16 callsubr
          endchar
        </CharString>
        <CharString name="brokenbar">
          -188 79 791 rmoveto
          -376 47 376 vlineto
          -47 -559 rmoveto
          -376 47 376 vlineto
          endchar
        </CharString>
        <CharString name="bullet">
          -121 136 256 rmoveto
          49 19 28 39 39 -19 29 -49 -50 -18 -29 -39 -39 18 -28 50 hvcurveto
          endchar
        </CharString>
        <CharString name="c">
          -23 63 132 rmoveto
          -86 45 -51 118 -18 callsubr
          endchar
        </CharString>
        <CharString name="cacute">
          -23 63 132 rmoveto
          -86 45 -51 118 -18 callsubr
          179 284 -43 callsubr
        </CharString>
        <CharString name="caron">
          -43 210 716 -56 callsubr
        </CharString>
        <CharString name="ccaron">
          -23 63 132 rmoveto
          -86 45 -51 118 -18 callsubr
          191 284 -56 callsubr
        </CharString>
        <CharString name="ccedilla">
          -23 63 132 rmoveto
          -77 36 -49 91 -9 vhcurveto
          -13 -65 59 callsubr
          8 35 rlineto
          0 1 0 1 -18 callsubr
          endchar
        </CharString>
        <CharString name="cedilla">
          -43 150 6 rmoveto
          -15 -74 59 callsubr
          10 46 rlineto
          endchar
        </CharString>
        <CharString name="cent">
          10 207 653 rmoveto
          -84 vlineto
          -97 -8 -38 -49 -80 vvcurveto
          -300 vlineto
          -79 38 -50 98 -7 vhcurveto
          -75 52 75 vlineto
          33 2 26 5 21 6 rrcurveto
          54 vlineto
          -9 -26 -36 -6 -41 hhcurveto
          -89 -19 31 54 hvcurveto
          298 vlineto
          54 19 32 89 38 36 -5 -8 27 vhcurveto
          53 vlineto
          -19 6 -27 5 -33 1 rrcurveto
          84 vlineto
          endchar
        </CharString>
        <CharString name="circumflex">
          -43 210 610 -32 callgsubr
        </CharString>
        <CharString name="colon">
          -200 67 345 256 callgsubr
          -350 vmoveto
          159 callsubr
        </CharString>
        <CharString name="comma">
          -260 239 callgsubr
          endchar
        </CharString>
        <CharString name="copyright">
          290 343 hmoveto
          227 64 138 184 190 -51 134 -240 -238 -56 -137 -187 -187 62 -135 232 hvcurveto
          -117 269 rmoveto
          -77 32 -49 98 25 29 4 3 21 vhcurveto
          51 vlineto
          -6 -21 -18 -4 -35 hhcurveto
          -75 -5 34 45 hvcurveto
          106 vlineto
          44 5 35 75 34 18 -3 -7 21 vhcurveto
          50 vlineto
          4 -20 -29 3 -25 hhcurveto
          -98 -32 -48 -78 hvcurveto
          117 -328 rmoveto
          -208 -35 114 160 160 32 116 211 210 30 -114 -162 -157 -37 -117 -203 hvcurveto
          endchar
        </CharString>
        <CharString name="currency">
          67 323 298 rmoveto
          -62 -17 -34 -76 -76 -17 34 62 vhcurveto
          72 vlineto
          62 17 34 76 76 17 -34 -62 vhcurveto
          50 -228 rmoveto
          38 39 -44 42 rlineto
          9 21 4 25 28 vvcurveto
          74 vlineto
          28 -4 25 -9 21 vhcurveto
          44 42 -38 39 -39 -37 rlineto
          17 -24 -33 10 -47 hhcurveto
          -46 -34 -10 -18 -23 hvcurveto
          -39 38 -39 -39 44 -43 rlineto
          -8 -21 -4 -24 -28 vvcurveto
          -74 vlineto
          -28 4 -24 8 -21 vhcurveto
          -44 -43 39 -39 39 38 rlineto
          -18 23 34 -10 46 hhcurveto
          46 34 10 17 24 hvcurveto
          endchar
        </CharString>
        <CharString name="d">
          51 81 callsubr
          endchar
        </CharString>
        <CharString name="dagger">
          218 callsubr
          0 -5 -66 -63 vvcurveto
          -505 51 505 vlineto
          63 -5 66 0 vhcurveto
          0 47 -5 53 vhcurveto
          46 vlineto
          -53 -47 -4 0 hvcurveto
          0 5 67 60 vvcurveto
          endchar
        </CharString>
        <CharString name="daggerdbl">
          218 callsubr
          -2 -144 0 -182 2 -143 rrcurveto
          0 -41 4 -59 vhcurveto
          -46 vlineto
          59 41 5 0 hvcurveto
          0 -5 -52 -76 vvcurveto
          51 hlineto
          76 -5 52 0 vhcurveto
          328 callgsubr
          2 143 0 182 -2 144 rrcurveto
          328 callgsubr
          0 5 67 60 vvcurveto
          endchar
        </CharString>
        <CharString name="danda">
          -114 149 hmoveto
          52 646 -52 hlineto
          endchar
        </CharString>
        <CharString name="dcaron">
          54 81 callsubr
          125 202 141 callsubr
          33 hlineto
          13 20 32 51 20 vvcurveto
          17 -12 8 -14 vhcurveto
          endchar
        </CharString>
        <CharString name="dcroat">
          52 314 716 rmoveto
          -47 -123 -43 123 -61 -102 vlineto
          -86 -63 -50 -95 hvcurveto
          -279 vlineto
          -92 48 -52 95 57 31 18 17 21 vhcurveto
          -32 57 626 40 43 -40 47 vlineto
          -58 -629 rmoveto
          -19 -19 -35 -19 -50 hhcurveto
          -59 -31 30 63 hvcurveto
          278 vlineto
          62 37 30 67 vhcurveto
          90 hlineto
          endchar
        </CharString>
        <CharString name="degree">
          -34 182 509 rmoveto
          96 33 60 77 78 -33 61 -96 -96 -32 -61 -78 -77 32 -60 96 hvcurveto
          44 vmoveto
          -70 -12 41 51 52 12 41 70 71 12 -41 -52 -51 -12 -41 -71 hvcurveto
          endchar
        </CharString>
        <CharString name="dieresis">
          -43 110 627 -89 callsubr
          endchar
        </CharString>
        <CharString name="divide">
          34 40 345 rmoveto
          -47 347 47 vlineto
          -170 -232 rmoveto
          78 callgsubr
          343 vmoveto
          78 callgsubr
          endchar
        </CharString>
        <CharString name="dollar">
          -14 162 734 rmoveto
          -63 vlineto
          -89 -10 -44 -50 -74 vvcurveto
          -59 vlineto
          -67 30 -41 55 -30 vhcurveto
          116 -64 rlineto
          44 -23 13 -23 -46 vvcurveto
          -46 vlineto
          -52 -33 -38 -90 -49 -50 10 12 -31 vhcurveto
          -56 vlineto
          25 -9 45 -9 48 -1 rrcurveto
          -73 52 75 vlineto
          96 11 45 51 77 vvcurveto
          53 vlineto
          62 -26 40 -55 30 vhcurveto
          -117 65 rlineto
          -42 23 -18 26 48 vvcurveto
          54 vlineto
          55 36 28 73 49 47 -7 -11 29 vhcurveto
          56 vlineto
          -24 7 -38 6 -45 2 rrcurveto
          61 vlineto
          endchar
        </CharString>
        <CharString name="dotaccent">
          -43 173 653 33 callsubr
        </CharString>
        <CharString name="dotlessi">
          85 callgsubr
          endchar
        </CharString>
        <CharString name="dottedcircle">
          267 183 472 rmoveto
          26 18 19 26 25 -18 19 -26 -26 -18 -19 -25 -26 18 -19 26 hvcurveto
          -80 -109 rmoveto
          24 20 19 25 25 -20 19 -24 -26 -20 -19 -25 -25 20 -19 26 hvcurveto
          -15 -125 rmoveto
          26 18 18 337 callsubr
          -18 25 hvcurveto
          52 -117 rmoveto
          25 19 18 26 25 -19 19 -25 -26 -18 -19 -25 -26 18 -18 26 hvcurveto
          102 -77 rmoveto
          25 19 20 26 24 -19 20 -25 -26 -19 -20 -24 -26 19 -20 26 hvcurveto
          126 -14 rmoveto
          26 19 18 26 26 -19 18 -26 282 callgsubr
          121 53 rmoveto
          25 20 18 26 25 -20 19 -25 -25 -19 -19 -25 -26 19 -18 25 hvcurveto
          74 98 rmoveto
          24 19 19 25 26 -19 19 -24 -26 -19 -19 -26 -25 19 -19 26 hvcurveto
          9 134 rmoveto
          25 19 18 26 26 -19 18 -25 282 callgsubr
          -50 118 rmoveto
          26 18 19 337 callsubr
          -19 25 hvcurveto
          -94 68 rmoveto
          25 18 20 24 26 -18 19 -25 -26 -19 -19 -26 -24 19 -20 26 hvcurveto
          -127 15 rmoveto
          26 18 18 26 26 -18 18 -26 282 callgsubr
          endchar
        </CharString>
        <CharString name="doubledanda">
          54 123 hmoveto
          53 646 -53 hlineto
          194 -646 rmoveto
          53 646 -53 hlineto
          endchar
        </CharString>
        <CharString name="dvA">
          161 248 158 callsubr
          99 46 -151 -387 -126 vlineto
          -71 callsubr
          endchar
        </CharString>
        <CharString name="dvAA">
          395 276 164 rmoveto
          45 callgsubr
          -357 -387 -126 vlineto
          -71 callsubr
          endchar
        </CharString>
        <CharString name="dvAI">
          31 303 646 rmoveto
          -325 -46 94 -483 hlineto
          -78 51 -44 99 52 47 10 10 23 vhcurveto
          48 vlineto
          -8 -24 -48 -11 -49 hhcurveto
          -71 -27 29 45 hvcurveto
          482 73 callgsubr
          -89 vlineto
          -159 229 rlineto
          -59 hlineto
          endchar
        </CharString>
        <CharString name="dvAU">
          396 384 827 rmoveto
          88 callsubr
          -115 -387 -126 hlineto
          -71 callsubr
          -77 vlineto
          45 callgsubr
          -101 vlineto
          14 callgsubr
          endchar
        </CharString>
        <CharString name="dvAbbreviationsign">
          -34 182 197 rmoveto
          96 33 60 77 78 -33 60 -96 -96 -32 -60 -78 -77 32 -60 96 hvcurveto
          229 vmoveto
          71 12 -41 -52 -51 -12 -40 -71 -70 -12 40 51 52 12 41 70 hvcurveto
          endchar
        </CharString>
        <CharString name="dvAcandra">
          161 248 158 callsubr
          99 46 -151 -387 -126 vlineto
          -71 callsubr
          306 585 28 callsubr
          endchar
        </CharString>
        <CharString name="dvAnusvara">
          -393 -104 727 -38 callgsubr
          endchar
        </CharString>
        <CharString name="dvAnusvara.amI">
          -393 51 709 -38 callgsubr
          endchar
        </CharString>
        <CharString name="dvAvagraha">
          27 381 202 rmoveto
          61 -18 42 -64 34 vhcurveto
          -136 74 rlineto
          -44 23 -9 30 38 vvcurveto
          26 vlineto
          38 8 29 81 vhcurveto
          159 49 -160 hlineto
          -106 -34 -43 -73 hvcurveto
          -27 vlineto
          -59 20 -44 62 -33 vhcurveto
          136 -73 rlineto
          44 -24 9 -29 -39 vvcurveto
          -72 vlineto
          -48 -16 -38 -91 vhcurveto
          -2 hlineto
          -91 -16 38 48 hvcurveto
          69 -52 -69 vlineto
          -82 43 -53 115 vhcurveto
          4 hlineto
          115 43 53 82 hvcurveto
          endchar
        </CharString>
        <CharString name="dvB">
          -179 -22 646 rmoveto
          -46 361 46 vlineto
          -291 -452 rmoveto
          -78 47 -44 98 103 41 44 78 vhcurveto
          189 vlineto
          79 -41 43 -103 -99 -46 -44 -78 vhcurveto
          239 -175 rmoveto
          -176 217 rlineto
          19 13 25 14 44 hhcurveto
          71 23 -34 -42 hvcurveto
          -187 -7 rmoveto
          178 -220 rlineto
          -23 -12 -24 -12 -49 hhcurveto
          -73 -20 29 45 hvcurveto
          endchar
        </CharString>
        <CharString name="dvBA">
          19 286 190 callsubr
          -98 -52 -45 -79 hvcurveto
          -184 vlineto
          58 callgsubr
          -455 -46 308 vlineto
          -87 -142 25 callgsubr
        </CharString>
        <CharString name="dvBH">
          6 118 callsubr
          226 46 rmoveto
          -174 141 -1 callgsubr
          -140 -79 vlineto
          105 callgsubr
          174 vlineto
          endchar
        </CharString>
        <CharString name="dvBHA">
          184 118 callsubr
          46 vmoveto
          -79 hlineto
          -92 -38 -37 -77 hvcurveto
          -99 -61 callsubr
        </CharString>
        <CharString name="dvBH_LA">
          608 118 callsubr
          665 -344 225 callgsubr
          -652 -46 501 -138 vlineto
          10 -25 -21 5 -31 hhcurveto
          -53 -39 332 callsubr
          27 -19 -36 17 -52 hhcurveto
          -76 -41 -32 -55 -12 hvcurveto
          -135 141 -1 callgsubr
          -140 -79 vlineto
          105 callgsubr
          131 -195 vlineto
          -93 46 -56 112 24 18 2 3 16 vhcurveto
          20 callgsubr
          65 27 89 callsubr
          vlineto
          endchar
        </CharString>
        <CharString name="dvBH_NA">
          561 118 callsubr
          619 -344 270 callsubr
          -605 -46 454 237 callsubr
          -73 -42 -28 -59 -9 hvcurveto
          -128 141 hlineto
          77 -39 43 -89 -88 -40 -43 -77 -27 4 -28 0 vhcurveto
          53 hlineto
          0 -4 29 25 vvcurveto
          43 12 29 63 64 12 -28 -44 vhcurveto
          -140 -79 vlineto
          105 callgsubr
          126 -166 vlineto
          -77 43 -39 83 84 43 342 callgsubr
          148 -430 hlineto
          -199 430 rmoveto
          0 12 -28 -46 vvcurveto
          -178 vlineto
          -43 -17 -25 -58 -58 -17 26 42 vhcurveto
          185 235 callsubr
          endchar
        </CharString>
        <CharString name="dvBH_R">
          14 490 419 rmoveto
          -173 112 284 callsubr
          -24 5 -30 141 callgsubr
          26 27 vvcurveto
          43 12 29 64 63 13 -28 -44 vhcurveto
          -111 -79 vlineto
          -93 -38 -37 -76 hvcurveto
          -59 vlineto
          -76 129 callsubr
          76 vhcurveto
          126 174 vlineto
          -104 vmoveto
          -299 -314 rlineto
          71 hlineto
          107 113 41 44 56 68 24 33 rlinecurve
          -225 35 94 callsubr
          57 293 callsubr
          79 hlineto
          endchar
        </CharString>
        <CharString name="dvBH_RA">
          193 457 235 -24 callsubr
          -93 -38 -37 -76 hvcurveto
          -59 vlineto
          -76 129 callsubr
          76 vhcurveto
          126 141 vlineto
          -192 -125 94 callsubr
          57 293 callsubr
          79 hlineto
          endchar
        </CharString>
        <CharString name="dvBH_R_YA">
          488 258 248 rmoveto
          -44 -11 -24 -68 -67 -11 25 43 vhcurveto
          43 vlineto
          44 11 24 67 vhcurveto
          79 hlineto
          52 46 rmoveto
          126 236 callgsubr
          -40 -43 -77 -2 1 -39 0 vhcurveto
          52 40 hlineto
          43 12 29 63 64 12 -28 -44 vhcurveto
          -125 -79 vlineto
          -92 -38 -37 -76 hvcurveto
          -45 10 callsubr
          112 95 vlineto
          17 16 -2 -10 7 hvcurveto
          -93 vlineto
          -12 1 -11 1 -10 vhcurveto
          -254 -266 rlineto
          71 hlineto
          107 113 28 29 34 40 26 33 rlinecurve
          -66 27 63 -19 75 hhcurveto
          71 38 18 26 19 hvcurveto
          -129 -93 callgsubr
          -533 -46 127 vlineto
          63 18 -29 -44 hvcurveto
          -66 vlineto
          -58 -26 -15 -76 -1 vhcurveto
          12 -12 -21 6 -31 hhcurveto
          85 -149 rmoveto
          85 vlineto
          81 1 52 33 84 vvcurveto
          68 vlineto
          42 -14 22 -16 9 vhcurveto
          152 -349 hlineto
          -80 -2 -29 -37 -97 hhcurveto
          -98 -29 39 83 hvcurveto
          endchar
        </CharString>
        <CharString name="dvBH_VA">
          419 683 134 24 callgsubr
          -425 -266 -21 callsubr
          477 -344 225 callgsubr
          -461 -46 310 -108 vlineto
          11 callgsubr
          -91 -50 -45 -70 -6 hvcurveto
          -129 141 -1 callgsubr
          -140 -79 vlineto
          105 callgsubr
          129 -144 281 callsubr
        </CharString>
        <CharString name="dvBH_YA">
          488 258 227 callsubr
          145 hmoveto
          27 callgsubr
          -92 -38 -37 -77 hvcurveto
          -113 10 callsubr
          181 vlineto
          320 169 36 callgsubr
          endchar
        </CharString>
        <CharString name="dvB_BA">
          258 525 190 callsubr
          -98 -52 -45 -79 hvcurveto
          -132 -48 callsubr
          99 60 39 15 29 22 vhcurveto
          -29 24 42 -15 56 hhcurveto
          299 callgsubr
          hvcurveto
          -86 49 -27 callgsubr
          -694 -46 547 vlineto
          -331 -480 -4 callsubr
          244 hmoveto
          -41 callsubr
        </CharString>
        <CharString name="dvB_BHA">
          422 -22 600 rmoveto
          256 46 -256 hlineto
          518 -468 94 callsubr
          98 258 callgsubr
          -303 -224 rmoveto
          -73 -8 callgsubr
          -24 -27 -70 vhcurveto
          303 270 rmoveto
          -79 hlineto
          208 callsubr
          -27 -48 callsubr
          98 52 37 12 22 23 vhcurveto
          -29 19 36 -15 57 hhcurveto
          93 38 39 76 hvcurveto
          167 137 -344 193 callgsubr
          -256 -137 141 vlineto
          317 callgsubr
          -25 4 -30 157 callsubr
          -4 32 22 vvcurveto
          43 13 29 63 64 12 -28 -44 vhcurveto
          endchar
        </CharString>
        <CharString name="dvB_BH_RA">
          424 -21 600 rmoveto
          261 46 -261 hlineto
          709 -411 -24 callsubr
          -93 -38 -37 -76 hvcurveto
          -56 150 callgsubr
          81 43 28 51 14 vhcurveto
          -13 20 29 -6 37 hhcurveto
          92 38 39 76 hvcurveto
          126 141 vlineto
          -495 -253 rmoveto
          -73 -8 callgsubr
          -24 -27 -70 vhcurveto
          303 128 94 callsubr
          57 293 callsubr
          79 hlineto
          endchar
        </CharString>
        <CharString name="dvB_DA">
          247 194 120 -4 callsubr
          385 112 rmoveto
          -49 -98 hlineto
          -7 -30 -21 356 callgsubr
          31 49 hvcurveto
          179 175 callsubr
          -684 -46 533 123 callgsubr
          -134 -48 callsubr
          99 62 40 17 31 21 vhcurveto
          -29 25 42 -15 55 hhcurveto
          39 24 3 6 28 hvcurveto
          -94 49 vlineto
          endchar
        </CharString>
        <CharString name="dvB_DHA">
          316 163 callgsubr
          -4 1 -4 -3 vvcurveto
          -44 -2 -25 -25 -67 hhcurveto
          108 480 rmoveto
          61 callgsubr
          -14 150 callgsubr
          61 39 16 29 22 vhcurveto
          -37 31 54 -17 65 hhcurveto
          50 35 6 9 30 hvcurveto
          -23 callgsubr
          -481 -46 hlineto
          endchar
        </CharString>
        <CharString name="dvB_DH_VA">
          547 163 callgsubr
          -6 vlineto
          -47 -23 -27 -70 vhcurveto
          618 372 rmoveto
          4 -10 -40 9 -47 285 callsubr
          -19 3 -17 5 -15 vhcurveto
          -8 -35 -41 -5 -32 -44 callgsubr
          -452 -46 323 147 callsubr
          -33 152 callsubr
          71 41 22 38 19 vhcurveto
          -31 32 50 -14 60 hhcurveto
          43 54 10 10 39 hvcurveto
          -23 25 37 -12 50 hhcurveto
          74 callgsubr
          hvcurveto
          -86 -25 callsubr
          -410 -46 260 vlineto
          -466 vmoveto
          -100 callgsubr
          endchar
        </CharString>
        <CharString name="dvB_JA">
          454 574 376 rmoveto
          30 callgsubr
          -474 181 134 callgsubr
        </CharString>
        <CharString name="dvB_JHA">
          527 193 118 rmoveto
          -73 -20 30 45 hvcurveto
          148 vlineto
          187 -143 rlineto
          -5 vlineto
          -48 -24 -27 -70 vhcurveto
          331 145 13 callsubr
          -963 -46 627 -95 -88 hlineto
          -96 -46 -40 -77 hvcurveto
          -7 vlineto
          -29 6 -24 13 -18 vhcurveto
          -107 -63 hlineto
          -187 144 rlineto
          40 3 22 25 68 hhcurveto
          30 26 -5 0 hvcurveto
          48 vlineto
          0 -28 5 -29 47 callsubr
          47 -44 98 103 40 45 76 vhcurveto
          71 176 0 4 vlineto
          -2 47 rmoveto
          -69 173 callsubr
          140 143 133 -290 hlineto
          endchar
        </CharString>
        <CharString name="dvB_J_YA">
          733 875 527 29 callsubr
          -97 -43 39 83 hvcurveto
          100 294 callsubr
          122 -473 rmoveto
          -93 callgsubr
          -1132 -46 799 hlineto
          -73 callsubr
          -51 vlineto
          -54 -22 -16 -63 -3 vhcurveto
          73 -4 -44 19 -68 hhcurveto
          -217 -47 108 hlineto
          -73 callsubr
          -180 vlineto
          -49 -25 -33 -70 -29 -56 11 9 -36 vhcurveto
          22 15 10 24 29 vvcurveto
          175 vlineto
          60 -41 35 -103 -98 -47 -34 -61 vhcurveto
          -175 vlineto
          -60 46 -34 99 36 29 4 8 22 vhcurveto
          -3 -29 rlineto
          -8 26 77 -17 46 hhcurveto
          98 50 48 81 hvcurveto
          182 vlineto
          357 callgsubr
          42 hlineto
          58 25 -6 -48 hvcurveto
          -141 vlineto
          -136 93 -33 99 49 42 7 5 24 vhcurveto
          -897 274 rmoveto
          -4 170 -214 4 vhcurveto
          -9 -21 -22 -12 -45 1 rrcurveto
          -70 -28 36 42 hvcurveto
          187 13 rmoveto
          4 -167 210 -4 vhcurveto
          10 19 21 12 42 -1 rrcurveto
          67 31 -39 -39 hvcurveto
          endchar
        </CharString>
        <CharString name="dvB_JxA">
          454 574 194 rmoveto
          182 vlineto
          30 callgsubr
          -274 -183 rmoveto
          -27 -10 -15 -21 -21 10 -15 27 106 callsubr
          hvcurveto
          -200 364 134 callgsubr
        </CharString>
        <CharString name="dvB_LA">
          454 194 120 -4 callsubr
          576 480 rmoveto
          99 46 -891 -46 740 200 callgsubr
          -103 -48 callsubr
          99 44 32 8 16 23 vhcurveto
          -61 16 48 -35 89 hhcurveto
          24 131 callgsubr
          hvcurveto
          -13 callgsubr
          52 vlineto
          endchar
        </CharString>
        <CharString name="dvB_L_YA">
          745 163 callgsubr
          -6 vlineto
          -47 -23 -27 -70 vhcurveto
          694 407 7 callgsubr
          -60 146 rmoveto
          -32 callsubr
          -53 -22 -17 -62 -3 vhcurveto
          59 -10 -40 35 -76 hhcurveto
          -48 -30 332 callsubr
          27 -19 -36 17 -52 hhcurveto
          -92 -41 -48 -77 hvcurveto
          -102 152 callsubr
          44 32 8 16 23 vhcurveto
          -61 16 47 -35 89 hhcurveto
          60 47 -59 164 callgsubr
          68 14 38 callsubr
          13 31 59 69 8 -31 -46 vhcurveto
          -98 69 callsubr
          -1182 -46 vlineto
          endchar
        </CharString>
        <CharString name="dvB_NA">
          410 193 456 rmoveto
          69 23 -25 -49 hvcurveto
          -131 vlineto
          -185 140 rlineto
          40 3 22 25 68 hhcurveto
          -336 vmoveto
          -73 -20 29 45 hvcurveto
          147 vlineto
          185 -141 rlineto
          -6 vlineto
          -47 -23 -27 -69 vhcurveto
          481 310 rmoveto
          -430 -93 callgsubr
          -847 -46 696 237 callsubr
          -40 -31 -9 -17 -22 hvcurveto
          34 -20 -40 19 -67 hhcurveto
          -98 -46 -44 -78 hvcurveto
          -188 vlineto
          -78 46 -44 98 53 36 12 22 23 vhcurveto
          -29 20 37 -15 51 -65 callsubr
        </CharString>
        <CharString name="dvB_R">
          -175 45 -65 rmoveto
          73 hlineto
          155 145 rlineto
          47 44 22 22 58 vvcurveto
          179 vlineto
          79 -42 43 -102 -100 -45 -44 -78 vhcurveto
          -179 vlineto
          -77 43 -46 109 2 vhcurveto
          -227 517 rmoveto
          384 46 -384 hlineto
          220 -188 rmoveto
          70 23 -26 -49 hvcurveto
          -125 vlineto
          -186 135 rlineto
          39 3 22 26 68 hhcurveto
          -328 vmoveto
          -73 -20 29 45 hvcurveto
          140 vlineto
          186 -135 rlineto
          -5 vlineto
          -48 -23 -26 -70 vhcurveto
          endchar
        </CharString>
        <CharString name="dvB_RA">
          23 290 491 rmoveto
          4 -9 -31 10 -48 hhcurveto
          -97 -52 -45 -79 hvcurveto
          183 callsubr
          -112 49 -86 callgsubr
          -460 -46 312 vlineto
          -86 -455 108 callgsubr
        </CharString>
        <CharString name="dvB_SA">
          425 194 120 -4 callsubr
          383 -109 -86 callsubr
          168 -294 -25 callsubr
          -861 -46 515 hlineto
          -95 callsubr
          134 -52 -201 vlineto
          -187 143 rlineto
          40 3 22 26 68 hhcurveto
          17 16 -3 0 hvcurveto
          47 vlineto
          0 -16 3 -18 47 callsubr
          47 -44 99 43 32 8 15 23 vhcurveto
          -68 17 60 -32 83 hhcurveto
          58 44 10 6 23 hvcurveto
          -28 callsubr
        </CharString>
        <CharString name="dvB_SHA">
          418 -22 600 rmoveto
          254 46 -254 hlineto
          704 hmoveto
          -646 -93 callgsubr
          vlineto
          -639 -526 -4 callsubr
          380 406 -12 callgsubr
          -20 275 callgsubr
          1 -3 18 18 179 callsubr
          71 0 callgsubr
          -71 -33 -33 7 8 -25 vhcurveto
          83 -52 -152 -1 -3 -48 callsubr
          99 44 32 8 16 23 vhcurveto
          -65 19 62 -35 83 hhcurveto
          172 callgsubr
          hvcurveto
          -72 callsubr
          endchar
        </CharString>
        <CharString name="dvB_TA">
          269 194 120 -4 callsubr
          237 -72 rmoveto
          -11 callsubr
          259 vlineto
          44 24 -9 callsubr
          -705 -46 554 138 callgsubr
          -98 -50 -48 -78 hvcurveto
          -129 -48 callsubr
          99 41 31 7 14 23 vhcurveto
          -58 8 40 -36 75 hhcurveto
          19 hlineto
          endchar
        </CharString>
        <CharString name="dvB_VA">
          267 194 120 29 callgsubr
          -24 -27 -69 vhcurveto
          337 372 rmoveto
          188 callsubr
          -129 -48 callsubr
          99 60 38 16 28 22 vhcurveto
          -29 24 40 -15 56 221 callgsubr
          -704 -46 553 vlineto
          -466 vmoveto
          -100 callgsubr
          endchar
        </CharString>
        <CharString name="dvB_YA">
          330 194 120 -4 callsubr
          277 407 26 callgsubr
          -133 hlineto
          -46 callgsubr
          99 72 42 23 40 18 vhcurveto
          -38 36 57 -12 59 51 callgsubr
          -766 -46 vlineto
          endchar
        </CharString>
        <CharString name="dvC">
          309 callsubr
          12 -472 rmoveto
          -10 -32 -43 -7 343 callsubr
          152 vlineto
          342 callsubr
          90 hlineto
          0 -9 195 callgsubr
          44 -48 100 37 49 9 8 25 vhcurveto
          endchar
        </CharString>
        <CharString name="dvCA">
          65 145 342 rmoveto
          60 10 32 0 vhcurveto
          116 46 -259 322 callsubr
          44 -48 100 232 callgsubr
          -501 -46 350 -474 vlineto
          -11 -31 256 callsubr
        </CharString>
        <CharString name="dvCH">
          105 254 485 rmoveto
          -50 360 callsubr
          -204 146 callgsubr
          323 46 -541 -46 122 hlineto
          158 callgsubr
          206 vlineto
          64 -28 56 -96 vhcurveto
          -33 1 -30 -10 0 vvcurveto
          endchar
        </CharString>
        <CharString name="dvCHA">
          106 69 395 131 callsubr
          -542 -46 101 -16 callsubr
        </CharString>
        <CharString name="dvCH_R">
          -19 callgsubr
          261 -696 -35 callsubr
          endchar
        </CharString>
        <CharString name="dvCH_RA">
          -19 callgsubr
          endchar
        </CharString>
        <CharString name="dvCH_R_YA">
          596 338 -130 rmoveto
          56 hlineto
          -86 158 rlineto
          94 10 38 41 89 vvcurveto
          206 vlineto
          29 -5 24 -11 19 vhcurveto
          186 hlineto
          63 13 -28 -43 hvcurveto
          -8 vlineto
          -57 -28 -14 -80 vhcurveto
          -25 -46 270 callgsubr
          100 44 155 callgsubr
          -1033 -46 101 214 callsubr
          -132 vlineto
          362 callsubr
          -44 vvcurveto
          -37 vlineto
          -88 40 -41 99 -10 vhcurveto
          -86 -157 rlineto
          56 hlineto
          82 155 rlineto
          2 hlineto
          483 104 rmoveto
          -98 340 callsubr
          10 vlineto
          77 -40 42 -88 vhcurveto
          -246 105 496 191 callgsubr
          -618 398 77 callsubr
        </CharString>
        <CharString name="dvCH_YA">
          576 892 hmoveto
          -86 callgsubr
          -1013 -46 122 vlineto
          158 callgsubr
          234 vlineto
          15 -2 15 -4 14 vhcurveto
          155 hlineto
          63 13 -29 -43 hvcurveto
          -7 vlineto
          -57 -28 -13 -80 vhcurveto
          -25 -47 270 callgsubr
          100 44 45 6 5 32 vhcurveto
          -92 vlineto
          -586 512 rmoveto
          -49 360 callsubr
          -232 146 callgsubr
          644 191 callgsubr
          323 callgsubr
          8 vlineto
          77 -40 42 -88 vhcurveto
          -184 hlineto
          17 -19 -29 10 -41 hhcurveto
          -33 1 -30 -10 0 vvcurveto
          endchar
        </CharString>
        <CharString name="dvC_CA">
          310 390 342 rmoveto
          60 11 32 0 vhcurveto
          115 46 -219 -46 51 hlineto
          0 -10 -32 -60 vvcurveto
          -153 vlineto
          -24 4 -21 9 -18 vhcurveto
          -9 -30 -36 -6 -41 hhcurveto
          -71 -28 23 56 hvcurveto
          152 vlineto
          209 callsubr
          82 46 -225 322 callsubr
          49 -48 100 51 61 13 13 29 vhcurveto
          -17 23 33 -9 43 hhcurveto
          37 30 6 9 25 hvcurveto
          -78 -25 callsubr
          -746 -46 596 -474 vlineto
          -11 -32 256 callsubr
        </CharString>
        <CharString name="dvC_CHA">
          382 346 395 rmoveto
          362 callsubr
          -44 vvcurveto
          -37 vlineto
          -14 1 -14 2 -11 vhcurveto
          -9 -29 -36 -7 -38 66 callgsubr
          45 49 12 9 26 vhcurveto
          -42 26 54 -17 90 hhcurveto
          136 52 38 105 hvcurveto
          55 callgsubr
          -819 -46 378 -16 callsubr
        </CharString>
        <CharString name="dvC_CH_VA">
          382 345 395 rmoveto
          123 callsubr
          349 callgsubr
          -14 1 -14 2 -12 vhcurveto
          -8 -28 -37 -7 -37 66 callgsubr
          44 49 12 8 26 vhcurveto
          12 -18 17 -13 23 -10 rrcurveto
          -27 -19 -15 -31 -41 vvcurveto
          -36 vlineto
          -78 51 -41 96 38 33 3 8 27 vhcurveto
          -64 51 308 vlineto
          37 22 16 37 58 vvcurveto
          206 vlineto
          60 -22 41 -54 12 vhcurveto
          113 156 46 -819 -46 377 214 callsubr
          171 -685 rmoveto
          -73 -24 29 44 hvcurveto
          36 vlineto
          45 21 29 73 vhcurveto
          0 vlineto
          5 6 0 5 hhcurveto
          33 28 2 5 23 hvcurveto
          -178 vlineto
          -9 -31 -28 -3 -38 hhcurveto
          -118 685 rmoveto
          46 10 27 0 vhcurveto
          185 -106 hlineto
          -35 -27 -9 0 hvcurveto
          -47 vlineto
          0 25 8 31 66 12 98 callgsubr
          -110 -111 -26 22 72 vhcurveto
          35 vlineto
          45 20 28 73 79 callgsubr
          endchar
        </CharString>
        <CharString name="dvC_MA">
          463 590 171 callsubr
          -189 -250 -94 callsubr
          189 -382 rmoveto
          -93 callgsubr
          -900 -46 560 324 callsubr
          -20 3 -18 5 -15 vhcurveto
          -8 -29 -35 -6 -33 66 callgsubr
          45 56 13 10 26 vhcurveto
          -16 21 31 -8 42 155 callsubr
          endchar
        </CharString>
        <CharString name="dvC_NA">
          454 718 430 rmoveto
          -430 -93 callgsubr
          -900 -46 749 311 callgsubr
          -20 3 -17 6 -15 vhcurveto
          -8 -32 -39 -7 -36 hhcurveto
          -71 -24 28 51 hvcurveto
          152 vlineto
          342 callsubr
          90 hlineto
          0 -9 195 callgsubr
          45 -48 101 49 55 12 12 32 vhcurveto
          -17 21 30 -8 39 -65 callsubr
        </CharString>
        <CharString name="dvC_R">
          309 callsubr
          27 -473 rmoveto
          -8 -31 -35 -5 -47 hhcurveto
          -81 -24 27 51 hvcurveto
          150 vlineto
          342 callsubr
          90 hlineto
          0 -9 -31 -60 vvcurveto
          -150 vlineto
          -79 44 -48 110 14 13 1 1 11 vhcurveto
          -144 -126 rlineto
          67 hlineto
          155 138 rlineto
          endchar
        </CharString>
        <CharString name="dvC_RA">
          65 145 342 rmoveto
          183 callgsubr
          -258 -47 90 260 callgsubr
          -116 vlineto
          -79 44 -48 100 vhcurveto
          5 hlineto
          -157 -154 rlineto
          69 hlineto
          172 168 rlineto
          1 0 1 1 hhcurveto
          -114 -47 callsubr
          -501 -46 350 -439 vlineto
          -10 -31 -24 -4 -34 hhcurveto
          -70 -24 27 51 hvcurveto
          endchar
        </CharString>
        <CharString name="dvC_YA">
          374 515 527 26 callgsubr
          -128 hlineto
          -45 10 -34 17 -25 vhcurveto
          -10 -32 -43 -10 -43 hhcurveto
          -70 -25 28 50 hvcurveto
          134 vlineto
          342 callsubr
          91 260 callgsubr
          -134 vlineto
          -79 46 -47 101 71 59 22 10 26 vhcurveto
          0 vlineto
          -22 35 45 -7 46 51 callgsubr
          -810 -46 vlineto
          endchar
        </CharString>
        <CharString name="dvCandrabindu">
          -393 -104 820 rmoveto
          27 9 16 20 21 -9 15 -27 -26 -9 -15 -21 -20 9 -16 26 hvcurveto
          103 6 28 callsubr
          endchar
        </CharString>
        <CharString name="dvD">
          7 46 204 rmoveto
          -77 callsubr
          -443 -46 292 -97 -81 hlineto
          -97 -46 -41 -79 hvcurveto
          398 -587 -35 callsubr
          endchar
        </CharString>
        <CharString name="dvDA">
          7 46 204 rmoveto
          -77 callsubr
          -443 -46 292 -97 -81 hlineto
          -97 -46 -41 -79 hvcurveto
          endchar
        </CharString>
        <CharString name="dvDA_mvR">
          7 46 271 rmoveto
          -81 56 -47 96 39 24 3 7 28 vhcurveto
          -57 vlineto
          1 -8 -7 0 -6 hhcurveto
          -79 -52 -33 -96 -96 58 -32 79 26 15 1 4 28 hvcurveto
          52 vlineto
          -4 -24 -22 -2 -23 hhcurveto
          -44 -44 5 72 72 39 5 44 16 32 -2 -3 21 hvcurveto
          256 -49 -95 vlineto
          -7 -30 -20 -3 -39 hhcurveto
          -72 -30 31 49 hvcurveto
          112 187 callgsubr
        </CharString>
        <CharString name="dvDD">
          16 356 -51 callgsubr
          -10 44 42 -4 49 124 callgsubr
          -28 -323 -35 callsubr
          endchar
        </CharString>
        <CharString name="dvDDA">
          16 356 -51 callgsubr
          -10 44 42 -4 49 124 callgsubr
          endchar
        </CharString>
        <CharString name="dvDDH">
          10 201 504 286 callgsubr
          -80 46 -50 102 103 45 49 81 vhcurveto
          -48 callgsubr
          119 145 104 46 -446 -46 290 -96 hlineto
          66 -708 -35 callsubr
          endchar
        </CharString>
        <CharString name="dvDDHA">
          10 201 504 286 callgsubr
          -80 46 -50 102 103 45 49 81 vhcurveto
          -48 callgsubr
          119 145 104 46 -446 -46 290 -96 hlineto
          endchar
        </CharString>
        <CharString name="dvDDH_DDHA">
          12 312 callsubr
          -46 15 -36 33 -22 vhcurveto
          -33 -20 -16 -33 -46 vvcurveto
          -154 vlineto
          -80 47 -49 102 103 46 49 80 vhcurveto
          14 128 callsubr
          39 27 -20 -51 vhcurveto
          -13 vlineto
          -46 -19 -36 -78 -77 -20 36 46 vhcurveto
          154 vlineto
          45 20 29 72 vhcurveto
          6 hlineto
          102 46 49 80 hvcurveto
          16 128 callsubr
          40 27 -20 -51 vhcurveto
          -15 226 callsubr
          106 46 -449 -46 291 -96 hlineto
          endchar
        </CharString>
        <CharString name="dvDDH_R">
          10 338 -305 -35 callsubr
          -78 809 13 callgsubr
        </CharString>
        <CharString name="dvDDH_RA">
          10 201 504 13 callgsubr
        </CharString>
        <CharString name="dvDDH_VA">
          22 312 callsubr
          -49 17 -37 38 -22 vhcurveto
          -37 -17 -18 -33 -45 vvcurveto
          -8 3 -48 8 vhcurveto
          2 -65 50 -33 78 1 rrcurveto
          36 32 1 4 15 hvcurveto
          10 -58 40 30 -9 288 rlineto
          22 22 10 31 38 vvcurveto
          16 128 callsubr
          40 27 -20 -50 vhcurveto
          -16 226 callsubr
          115 46 -458 -46 291 -96 hlineto
          -76 -594 363 callsubr
          34 12 28 43 10 vhcurveto
          -2 12 13 -1 14 hhcurveto
          29 25 4 7 20 hvcurveto
          -63 -1 0 -121 -1 hhcurveto
          -24 -5 -26 -3 -37 2 rrcurveto
          endchar
        </CharString>
        <CharString name="dvDDH_YA">
          481 206 -5 rmoveto
          103 45 49 81 hvcurveto
          -48 callgsubr
          293 hlineto
          64 12 -28 -43 hvcurveto
          -17 199 callsubr
          -917 -46 290 -96 -67 vlineto
          -97 -46 -43 -78 hvcurveto
          -258 vlineto
          -80 46 -50 102 vhcurveto
          418 278 callgsubr
          18 vlineto
          77 -39 42 -89 vhcurveto
          -174 96 424 343 callgsubr
        </CharString>
        <CharString name="dvDDHxA">
          10 201 504 286 callgsubr
          -80 46 -50 102 103 45 241 callgsubr
          40 26 -20 -51 -14 callgsubr
          119 145 104 46 -446 -46 290 -96 hlineto
          -63 -671 rmoveto
          -64 callsubr
          endchar
        </CharString>
        <CharString name="dvDD_DDA">
          22 40 106 rmoveto
          13 -3 15 -2 15 -2 rrcurveto
          -17 -18 -10 -25 -32 vvcurveto
          -77 48 -30 85 vhcurveto
          40 hlineto
          62 19 -19 -43 hvcurveto
          -17 vlineto
          -53 -22 -18 -82 -42 -60 8 10 -50 vhcurveto
          -47 vlineto
          -10 44 54 -8 54 hhcurveto
          108 49 266 callsubr
          -41 hlineto
          -62 -19 18 43 47 19 17 62 hvcurveto
          0 vlineto
          6 5 0 6 hhcurveto
          109 48 266 callsubr
          -40 hlineto
          -62 -19 18 43 hvcurveto
          4 vlineto
          43 19 17 62 vhcurveto
          271 callsubr
          -32 -75 hvcurveto
          -5 186 callsubr
        </CharString>
        <CharString name="dvDD_DDHA">
          22 40 106 rmoveto
          16 -3 17 -3 18 -3 rrcurveto
          -22 -20 -13 -28 -36 vvcurveto
          -152 vlineto
          -80 47 -49 102 103 46 49 80 vhcurveto
          14 128 callsubr
          39 27 -20 -50 vhcurveto
          -14 vlineto
          -46 -19 -36 -78 -77 -20 36 47 vhcurveto
          153 vlineto
          45 19 29 72 vhcurveto
          0 vlineto
          2 2 0 2 hhcurveto
          108 49 266 callsubr
          -40 hlineto
          -62 -19 18 43 47 19 17 62 hvcurveto
          271 callsubr
          -31 -77 hvcurveto
          -4 186 callsubr
        </CharString>
        <CharString name="dvDD_R">
          15 355 -51 callgsubr
          30 -7 29 -4 30 -2 -81 -148 rcurveline
          56 hlineto
          78 147 rlineto
          -1 6 0 5 hhcurveto
          78 -147 rlineto
          56 hlineto
          -84 154 rlineto
          64 15 32 40 62 vvcurveto
          -25 -424 -35 callsubr
          endchar
        </CharString>
        <CharString name="dvDD_RA">
          16 356 -51 callgsubr
          30 -7 28 -4 31 -2 -81 -147 rcurveline
          259 callsubr
          0 6 0 6 vhcurveto
          77 -146 rlineto
          56 hlineto
          -84 153 rlineto
          64 15 32 40 62 vvcurveto
          endchar
        </CharString>
        <CharString name="dvDD_VA">
          23 40 106 rmoveto
          17 -4 20 -3 20 -2 rrcurveto
          -23 -19 -12 -28 -36 vvcurveto
          -8 4 -48 8 vhcurveto
          2 -65 49 -33 78 1 rrcurveto
          36 33 1 4 15 hvcurveto
          10 -58 39 30 -9 279 rlineto
          24 19 12 29 42 vvcurveto
          17 vlineto
          77 -46 32 -88 vhcurveto
          -41 hlineto
          -62 -19 18 43 hvcurveto
          4 vlineto
          43 19 17 62 vhcurveto
          146 142 103 46 -459 -46 303 -95 -92 hlineto
          -88 -46 -32 -75 hvcurveto
          -5 vlineto
          -77 47 -30 87 vhcurveto
          40 hlineto
          62 19 -19 -43 1 hvcurveto
          -17 vlineto
          -53 -23 -18 -82 -41 -70 6 12 -55 vhcurveto
          157 -244 363 callsubr
          32 11 27 37 11 vhcurveto
          -1 14 13 0 13 hhcurveto
          32 27 3 6 21 hvcurveto
          -52 -1 -130 -2 vhcurveto
          -23 -5 -26 -3 -37 2 rrcurveto
          endchar
        </CharString>
        <CharString name="dvDD_YA">
          485 193 -5 rmoveto
          109 54 43 81 hvcurveto
          40 vlineto
          77 -46 42 -97 vhcurveto
          -17 hlineto
          -71 -19 28 43 hvcurveto
          38 114 callsubr
          302 hlineto
          64 12 -28 -44 hvcurveto
          -18 199 callsubr
          -921 238 callgsubr
          vlineto
          169 callgsubr
          -40 vlineto
          -77 47 -41 96 vhcurveto
          -3 callgsubr
          -10 44 42 -4 49 hhcurveto
          435 278 callgsubr
          19 vlineto
          78 -39 41 -89 vhcurveto
          -171 95 421 343 callgsubr
        </CharString>
        <CharString name="dvDDxA">
          16 205 -168 rmoveto
          170 callsubr
          151 327 -56 callgsubr
          -452 189 callgsubr
          -9 callgsubr
        </CharString>
        <CharString name="dvDH">
          -96 380 132 rmoveto
          -8 -28 -56 -12 -49 hhcurveto
          -79 -6 callsubr
          103 50 53 12 9 31 vhcurveto
          endchar
        </CharString>
        <CharString name="dvDHA">
          97 82 600 rmoveto
          135 callgsubr
          -102 76 -42 103 50 35 6 9 30 vhcurveto
          -23 callgsubr
          -262 -46 hlineto
          endchar
        </CharString>
        <CharString name="dvDH_MA">
          482 557 178 rmoveto
          -43 -12 -90 callgsubr
          79 hlineto
          52 46 rmoveto
          172 137 234 callgsubr
          98 46 -563 -46 224 324 callgsubr
          -19 2 -16 5 -14 vhcurveto
          -7 -30 -40 -7 -37 215 callsubr
          53 -15 callsubr
          76 46 -233 -46 104 hlineto
          61 callgsubr
          -54 vlineto
          -102 76 -42 104 51 53 12 9 32 vhcurveto
          -17 21 31 -8 43 hhcurveto
          93 191 callsubr
          endchar
        </CharString>
        <CharString name="dvDH_NA">
          472 736 430 rmoveto
          -430 -93 callgsubr
          -570 -46 419 237 callsubr
          -84 -43 -37 -77 hvcurveto
          -185 vlineto
          -20 3 -17 5 -14 vhcurveto
          -8 -31 -40 -7 -36 hhcurveto
          -80 -6 callsubr
          104 51 55 14 9 32 vhcurveto
          -16 21 30 -8 38 304 callgsubr
          -52 hmoveto
          201 callsubr
          endchar
        </CharString>
        <CharString name="dvDH_N_YA">
          773 536 421 rmoveto
          1 -1 12 -37 callsubr
          -169 vlineto
          -43 -17 -25 -58 -58 -17 26 42 vhcurveto
          175 294 callgsubr
          440 106 39 callsubr
          -21 -18 -62 -3 vhcurveto
          62 -5 -53 23 -79 hhcurveto
          -168 hlineto
          -83 -43 -37 -77 hvcurveto
          -176 vlineto
          -20 3 -18 6 -15 vhcurveto
          -7 -32 -40 -6 -37 hhcurveto
          -80 -6 callsubr
          104 51 57 11 11 33 vhcurveto
          -15 21 28 -8 37 hhcurveto
          83 44 39 77 hvcurveto
          170 vlineto
          47 -13 26 0 vhcurveto
          48 hlineto
          53 41 -9 -41 hvcurveto
          -117 vlineto
          -68 callgsubr
          -841 -46 vlineto
          endchar
        </CharString>
        <CharString name="dvDH_R">
          -96 67 228 rmoveto
          -104 73 -42 110 17 18 1 2 16 310 callsubr
          46 vlineto
          335 callgsubr
          36 vlineto
          44 19 28 73 vhcurveto
          34 49 105 callsubr
          69 107 callsubr
          77 46 -234 166 callsubr
          -69 92 callgsubr
          251 callgsubr
          endchar
        </CharString>
        <CharString name="dvDH_RA">
          98 361 146 rmoveto
          60 callsubr
          106 46 -262 -46 103 hlineto
          0 -7 -24 -49 vvcurveto
          -74 vlineto
          -45 10 -36 46 -16 vhcurveto
          127 callgsubr
        </CharString>
        <CharString name="dvDH_VA">
          328 592 492 rmoveto
          4 -10 -40 9 -47 285 callsubr
          -19 3 -17 5 -15 vhcurveto
          -8 -35 -41 -5 -32 -44 callgsubr
          -233 -46 104 147 callsubr
          -52 vlineto
          -101 76 -43 104 43 54 10 10 39 vhcurveto
          -23 25 37 -12 50 hhcurveto
          74 callgsubr
          hvcurveto
          -86 -25 callsubr
          -410 -46 260 vlineto
          -466 vmoveto
          -100 callgsubr
          endchar
        </CharString>
        <CharString name="dvDH_YA">
          391 532 527 26 callgsubr
          -128 hlineto
          -43 9 -33 16 -25 vhcurveto
          -9 -39 -48 -8 -38 -44 callgsubr
          -233 -46 104 hlineto
          87 callsubr
        </CharString>
        <CharString name="dvD_BA">
          19 201 144 rmoveto
          31 51 6 5 16 hvcurveto
          -129 vlineto
          -8 0 -7 -2 -7 vhcurveto
          -161 124 rlineto
          10 14 21 6 30 hhcurveto
          -147 119 rmoveto
          -45 17 -33 34 -20 vhcurveto
          -32 -20 -17 -34 -45 vvcurveto
          -41 vlineto
          -80 47 -48 101 101 43 49 80 1 vhcurveto
          307 -50 -132 vlineto
          -4 -22 -44 -6 -30 hhcurveto
          -73 -24 29 44 hvcurveto
          118 185 callgsubr
          -438 rmoveto
          -76 -20 34 47 hvcurveto
          40 vlineto
          11 1 10 3 9 vhcurveto
          168 -128 rlineto
          -14 -14 -24 -9 -38 hhcurveto
          endchar
        </CharString>
        <CharString name="dvD_BHA">
          94 217 -30 rmoveto
          13 -18 4 -23 -34 -25 -37 -27 -21 13 -11 18 -16 20 rcurveline
          -13 19 -4 23 34 25 44 32 rcurveline
          -44 260 rmoveto
          -81 56 -47 96 vhcurveto
          3 3 0 2 hhcurveto
          -103 -75 -51 71 -30 43 -45 4 -49 -37 rlinecurve
          -51 -35 -10 -45 30 -42 17 -21 rcurveline
          35 25 -16 23 -11 17 -3 21 33 24 rlinecurve
          32 23 18 -8 14 -17 51 -71 rcurveline
          -44 -32 -52 -38 -8 -46 29 -40 rlinecurve
          16 -22 30 -42 47 -7 53 37 rlinecurve
          52 39 6 46 -28 42 -42 57 rcurveline
          162 116 rlineto
          1 -114 49 260 -49 -98 hlineto
          -7 -30 -21 356 callgsubr
          32 49 hvcurveto
          95 vlineto
          336 callsubr
          -531 -46 378 123 callgsubr
          endchar
        </CharString>
        <CharString name="dvD_B_RA">
          18 201 202 rmoveto
          36 46 8 7 17 hvcurveto
          -107 vlineto
          -9 -1 -8 -1 -8 vhcurveto
          -160 103 rlineto
          9 14 21 5 28 hhcurveto
          -147 118 rmoveto
          -45 17 -33 34 -19 vhcurveto
          -31 -20 -17 -34 -45 vvcurveto
          -15 vlineto
          -80 46 -46 99 vhcurveto
          3 hlineto
          -113 -105 rlineto
          72 hlineto
          134 128 2 1 rlineto
          -75 49 411 -49 -80 vlineto
          -7 -19 -35 -7 -43 hhcurveto
          -73 -24 29 44 hvcurveto
          60 185 callgsubr
          -355 rmoveto
          -76 -20 35 47 hvcurveto
          14 vlineto
          11 1 11 3 9 vhcurveto
          166 -106 -2 -2 -3 -2 -3 -2 rlinecurve
          -1 hlineto
          -2 -2 rlineto
          -8 -15 -20 -5 -28 hhcurveto
          endchar
        </CharString>
        <CharString name="dvD_DA">
          14 53 373 rmoveto
          -44 16 -32 31 -20 vhcurveto
          -31 -19 -16 -32 -44 vvcurveto
          -55 vlineto
          -76 56 -43 96 39 25 6 7 28 vhcurveto
          -88 49 228 -49 -92 vlineto
          -7 -23 -30 -7 -37 hhcurveto
          -72 -29 29 44 hvcurveto
          53 vlineto
          44 19 29 72 vhcurveto
          87 47 -87 hlineto
          -72 -19 29 43 hvcurveto
          12 vlineto
          44 19 28 72 vhcurveto
          133 143 99 46 -451 -46 300 -96 -83 hlineto
          -96 -46 -41 -77 hvcurveto
          endchar
        </CharString>
        <CharString name="dvD_DHA">
          149 189 204 rmoveto
          359 callsubr
          -84 -32 21 61 vhcurveto
          211 callsubr
          14 43 -14 hlineto
          142 callgsubr
          95 callsubr
          endchar
        </CharString>
        <CharString name="dvD_GA">
          15 54 241 rmoveto
          -62 33 -43 60 -16 vhcurveto
          -78 vlineto
          -41 -4 -30 -62 -17 -16 3 0 vhcurveto
          -46 vlineto
          0 14 -5 22 88 26 45 73 vhcurveto
          72 vlineto
          3 3 0 3 hhcurveto
          38 24 3 7 28 hvcurveto
          -283 50 447 -50 -116 vlineto
          -7 -29 -21 -3 -39 hhcurveto
          -72 -30 31 49 hvcurveto
          142 144 callsubr
          100 46 -452 -46 300 123 callgsubr
          endchar
        </CharString>
        <CharString name="dvD_GHA">
          150 170 -28 rmoveto
          -84 -32 21 61 hvcurveto
          211 callsubr
          66 -94 hlineto
          359 callsubr
          vhcurveto
          172 104 rmoveto
          95 callsubr
          -42 -66 vlineto
          142 callgsubr
          endchar
        </CharString>
        <CharString name="dvD_G_RA">
          16 346 -126 rmoveto
          461 -49 -125 vlineto
          -6 -30 -20 -3 -39 hhcurveto
          -72 -30 31 49 hvcurveto
          102 175 callsubr
          -451 -46 300 123 callgsubr
          -102 vlineto
          -62 33 -42 59 -17 vhcurveto
          -57 vlineto
          -42 -4 -30 -62 -17 -16 4 0 vhcurveto
          -46 vlineto
          0 13 -5 23 88 25 44 73 vhcurveto
          52 vlineto
          3 4 0 3 hhcurveto
          38 25 3 7 28 hvcurveto
          -120 vlineto
          -203 -209 rlineto
          65 hlineto
          38 39 72 72 29 36 1 3 rlinecurve
          -1 vlineto
          -1 -1 -33 -27 vvcurveto
          -48 vlineto
          endchar
        </CharString>
        <CharString name="dvD_MA">
          227 340 132 rmoveto
          198 -50 -95 vlineto
          -3 -14 -37 -8 -42 hhcurveto
          -73 -26 29 43 hvcurveto
          86 vlineto
          44 19 29 73 356 callsubr
          166 -468 hlineto
          -46 vmoveto
          -99 52 613 99 46 -663 -46 293 -97 -81 vlineto
          -98 -46 -42 -78 hvcurveto
          -87 vlineto
          -77 53 -43 96 43 33 7 6 19 vhcurveto
          -149 50 46 vlineto
          endchar
        </CharString>
        <CharString name="dvD_NA">
          7 46 223 rmoveto
          -81 56 -45 96 vhcurveto
          -94 -65 -63 -44 -2 -47 29 -35 rlinecurve
          20 -25 40 -5 0 vvcurveto
          38 30 rlineto
          0 -37 7 -15 18 vhcurveto
          -19 24 8 22 35 24 151 105 rcurveline
          -115 49 269 -49 -107 vlineto
          -7 -30 -21 356 callgsubr
          32 49 hvcurveto
          159 187 callgsubr
        </CharString>
        <CharString name="dvD_R">
          5 443 -209 -35 callsubr
          -340 441 rmoveto
          -81 57 -46 96 vhcurveto
          5 5 0 4 hhcurveto
          -162 -174 rlineto
          66 hlineto
          171 183 rlineto
          1 1 0 1 vhcurveto
          -124 301 callsubr
          -68 vlineto
          -8 -30 -20 -4 -39 hhcurveto
          -72 -30 31 49 hvcurveto
          151 146 callsubr
          -98 -46 -41 -79 hvcurveto
          endchar
        </CharString>
        <CharString name="dvD_RA">
          5 46 233 -10 callsubr
          -444 -46 292 123 callgsubr
          endchar
        </CharString>
        <CharString name="dvD_VA">
          16 203 -53 111 callgsubr
          -453 -46 300 123 callgsubr
          115 callsubr
        </CharString>
        <CharString name="dvD_YA">
          83 498 646 rmoveto
          -520 -46 190 -78 hlineto
          -58 -1 -51 -24 -75 vvcurveto
          -30 vlineto
          -45 10 -35 47 -17 vhcurveto
          -47 -13 -16 -38 -44 vvcurveto
          -15 vlineto
          -102 69 -31 102 49 41 8 7 34 vhcurveto
          -67 51 600 99 vlineto
          -151 hmoveto
          -486 vlineto
          -7 -27 -47 -8 -46 hhcurveto
          -78 -43 15 72 hvcurveto
          14 vlineto
          44 20 29 73 vhcurveto
          30 47 -31 -11 callgsubr
          26 vlineto
          53 31 10 52 vhcurveto
          27 119 hlineto
          endchar
        </CharString>
        <CharString name="dvE">
          31 349 63 rmoveto
          -8 -25 -47 -11 -49 hhcurveto
          -78 -25 30 49 hvcurveto
          477 73 callgsubr
          -468 -46 94 -476 vlineto
          -88 54 -41 102 51 47 10 10 23 vhcurveto
          endchar
        </CharString>
        <CharString name="dvEcandra">
          31 322 837 rmoveto
          -53 -30 -15 -73 -73 -29 15 53 vhcurveto
          -49 -1 hlineto
          -86 53 -27 98 98 54 27 86 vhcurveto
          1 vlineto
          -27 -774 rmoveto
          -8 -24 -48 -11 -49 hhcurveto
          -71 -27 29 45 hvcurveto
          482 73 callgsubr
          -468 -46 94 -483 vlineto
          -78 51 -44 99 52 47 10 10 23 vhcurveto
          endchar
        </CharString>
        <CharString name="dvEight">
          9 callgsubr
        </CharString>
        <CharString name="dvEyelash">
          -151 -22 600 rmoveto
          365 46 -365 hlineto
          365 -321 rmoveto
          -161 hlineto
          -73 -40 -4 54 hvcurveto
          -49 -2 hlineto
          -86 64 -8 98 vhcurveto
          161 hlineto
          endchar
        </CharString>
        <CharString name="dvEyelash_HA">
          223 251 127 rmoveto
          -81 50 -51 116 44 48 4 7 41 vhcurveto
          47 vlineto
          -8 -48 -39 -2 -45 hhcurveto
          173 callgsubr
          -71 -19 272 callgsubr
          -660 -46 510 -96 -94 hlineto
          -97 321 callsubr
          -12 -74 vlineto
          -73 -40 5 55 hvcurveto
          -49 -3 hlineto
          -86 63 -17 99 vhcurveto
          81 hlineto
          8 -22 15 -16 23 -10 rrcurveto
          -37 -16 -19 -31 -46 vvcurveto
          endchar
        </CharString>
        <CharString name="dvEyelash_YA">
          283 425 527 29 callsubr
          -98 -42 39 83 hvcurveto
          61 294 callsubr
          -60 166 48 callgsubr
          -91 vlineto
          -60 -28 -14 -84 vhcurveto
          -72 hlineto
          -73 -39 5 55 hvcurveto
          -50 -2 hlineto
          -87 64 -17 98 vhcurveto
          51 -63 hlineto
          -136 92 -32 100 48 97 callsubr
          -720 -46 vlineto
          endchar
        </CharString>
        <CharString name="dvFive">
          59 callgsubr
        </CharString>
        <CharString name="dvFour">
          132 callgsubr
        </CharString>
        <CharString name="dvG">
          -140 185 600 rmoveto
          89 46 -296 37 callgsubr
          endchar
        </CharString>
        <CharString name="dvGA">
          84 499 646 rmoveto
          -521 37 callgsubr
          283 163 298 callsubr
          99 vlineto
          endchar
        </CharString>
        <CharString name="dvGH">
          -109 380 130 rmoveto
          -5 -18 -65 -13 -48 hhcurveto
          6 callsubr
          228 46 -384 184 callgsubr
          105 49 60 13 6 24 vhcurveto
          endchar
        </CharString>
        <CharString name="dvGHA">
          97 512 646 rmoveto
          -534 -46 103 hlineto
          38 callgsubr
        </CharString>
        <CharString name="dvGH_MA">
          481 249 112 rmoveto
          6 callsubr
          422 324 callsubr
          -21 3 -18 6 -15 vhcurveto
          -6 -31 -42 -6 -34 hhcurveto
          307 66 144 callgsubr
          -918 184 callgsubr
          107 48 60 13 7 29 vhcurveto
          -15 21 30 -7 41 155 callsubr
          endchar
        </CharString>
        <CharString name="dvGH_NA">
          472 249 112 rmoveto
          6 callsubr
          602 113 callgsubr
          -185 vlineto
          -21 3 -18 7 -15 vhcurveto
          -6 -31 -43 -6 -34 hhcurveto
          487 318 rmoveto
          -430 -93 callgsubr
          -909 -46 103 vlineto
          63 callsubr
          107 49 63 13 7 28 vhcurveto
          -15 21 28 -7 36 -65 callsubr
        </CharString>
        <CharString name="dvGH_R">
          -105 375 140 rmoveto
          335 callgsubr
          32 vlineto
          43 4 callgsubr
          44 vvcurveto
          73 vlineto
          46 8 27 0 vhcurveto
          244 46 -400 -46 103 hlineto
          0 -8 -24 -49 vvcurveto
          -74 320 callgsubr
          -16 vhcurveto
          -47 -13 253 callgsubr
          -33 vlineto
          -104 73 -42 110 17 17 1 2 17 310 callsubr
          endchar
        </CharString>
        <CharString name="dvGH_RA">
          98 512 646 rmoveto
          -534 -46 103 hlineto
          0 -7 -24 -49 vvcurveto
          -74 vlineto
          362 callsubr
          -45 vvcurveto
          -29 vlineto
          -104 75 -41 105 10 9 0 1 9 vhcurveto
          -148 -135 rlineto
          74 hlineto
          158 149 rlineto
          1 -101 52 600 99 hlineto
          -151 hmoveto
          -454 vlineto
          60 callsubr
          endchar
        </CharString>
        <CharString name="dvGH_YA">
          390 249 139 rmoveto
          -81 -48 25 74 hvcurveto
          40 21 callsubr
          56 vlineto
          46 8 27 0 vhcurveto
          338 hlineto
          57 callgsubr
          -42 9 -33 15 -24 vhcurveto
          -8 -37 -49 -8 -37 hhcurveto
          283 388 -103 callsubr
          175 -454 270 callsubr
          -827 -46 103 vlineto
          0 -8 -24 -49 vvcurveto
          -56 vlineto
          -46 11 -35 46 -16 vhcurveto
          -47 -13 253 callgsubr
          -42 vlineto
          -104 75 -40 107 51 70 13 12 38 vhcurveto
          -24 35 47 -8 49 192 callsubr
          endchar
        </CharString>
        <CharString name="dvG_BA">
          280 547 190 callsubr
          -98 -52 -45 -79 hvcurveto
          -184 vlineto
          58 callgsubr
          -716 167 callsubr
          vlineto
          -91 callsubr
          283 362 vlineto
          -87 -480 rmoveto
          -41 callsubr
        </CharString>
        <CharString name="dvG_BHA">
          445 185 600 rmoveto
          74 46 -281 37 callgsubr
          334 -139 -21 callsubr
          46 vmoveto
          -79 hlineto
          -92 -38 -37 -77 hvcurveto
          -99 -61 callsubr
        </CharString>
        <CharString name="dvG_BH_YA">
          730 185 600 rmoveto
          67 46 -274 37 callgsubr
          315 -139 94 callsubr
          112 258 callgsubr
          142 hmoveto
          25 20 -6 -22 hvcurveto
          -76 vlineto
          97 callgsubr
          98 46 -533 -46 200 vlineto
          -32 callsubr
          -58 -25 -15 -78 -1 vhcurveto
          14 -11 -22 8 -35 hhcurveto
          -96 335 callsubr
          -24 5 -31 141 callgsubr
          30 24 vvcurveto
          43 13 29 63 64 12 -28 -44 vhcurveto
          -126 350 callsubr
          -113 10 callsubr
          181 vlineto
          319 169 32 callgsubr
        </CharString>
        <CharString name="dvG_DA">
          268 307 204 rmoveto
          -77 callsubr
          -704 37 callgsubr
          283 346 -97 -81 vlineto
          -97 -46 -41 -79 hvcurveto
          endchar
        </CharString>
        <CharString name="dvG_DHA">
          359 344 600 rmoveto
          135 callgsubr
          -102 76 -42 103 50 35 6 9 30 vhcurveto
          -23 callgsubr
          -524 37 callgsubr
          283 vlineto
          endchar
        </CharString>
        <CharString name="dvG_DH_VA">
          590 854 492 rmoveto
          4 -10 -40 9 -47 285 callsubr
          -19 3 -17 5 -15 vhcurveto
          -8 -35 -41 -5 -32 -44 callgsubr
          -495 37 callgsubr
          283 159 vlineto
          168 callsubr
          -52 320 callgsubr
          -17 vhcurveto
          -47 -12 253 callgsubr
          -52 vlineto
          -101 76 -43 104 43 54 10 10 39 vhcurveto
          -23 25 37 -12 50 hhcurveto
          74 callgsubr
          hvcurveto
          -86 -25 callsubr
          -410 -46 260 vlineto
          -466 vmoveto
          -100 callgsubr
          endchar
        </CharString>
        <CharString name="dvG_DH_YA">
          652 794 527 26 callgsubr
          -128 hlineto
          -43 9 -33 16 -25 vhcurveto
          -9 -39 -48 -8 -38 -44 callgsubr
          -495 37 callgsubr
          283 159 vlineto
          87 callsubr
        </CharString>
        <CharString name="dvG_GA">
          316 731 646 rmoveto
          -753 37 callgsubr
          283 180 -283 vlineto
          -91 callsubr
          283 163 298 callsubr
          99 vlineto
          endchar
        </CharString>
        <CharString name="dvG_GHA">
          359 774 646 rmoveto
          -796 37 callgsubr
          283 158 vlineto
          38 callgsubr
        </CharString>
        <CharString name="dvG_JA">
          401 521 361 rmoveto
          205 callgsubr
          -838 37 callgsubr
          283 480 -120 -317 -47 112 vlineto
          -96 callgsubr
          endchar
        </CharString>
        <CharString name="dvG_LA">
          481 314 149 rmoveto
          -93 47 -56 112 24 18 2 3 16 vhcurveto
          -13 callgsubr
          -93 callgsubr
          -918 167 callsubr
          vlineto
          -91 callsubr
          283 560 -138 vlineto
          217 callgsubr
          endchar
        </CharString>
        <CharString name="dvG_MA">
          429 504 178 144 callgsubr
          -866 37 callgsubr
          283 319 -172 -78 vlineto
          -77 callgsubr
          137 vlineto
          endchar
        </CharString>
        <CharString name="dvG_NA">
          435 698 430 rmoveto
          -430 -93 callgsubr
          -871 167 callsubr
          vlineto
          -91 callsubr
          283 513 -123 -262 vlineto
          -83 -44 -37 -77 hvcurveto
          -24 callgsubr
        </CharString>
        <CharString name="dvG_NNA">
          476 597 600 rmoveto
          143 -600 -25 callsubr
          -912 37 callgsubr
          283 135 -353 vlineto
          47 callgsubr
          -52 353 rmoveto
          119 callgsubr
        </CharString>
        <CharString name="dvG_N_YA">
          725 489 421 295 callsubr
          -169 vlineto
          -43 -17 -25 -58 -58 -17 26 42 vhcurveto
          176 235 callsubr
          440 106 7 callgsubr
          -60 146 rmoveto
          -32 callsubr
          -52 -21 -18 -62 -3 vhcurveto
          62 -5 -53 23 -80 hhcurveto
          -167 hlineto
          125 callsubr
          -176 vlineto
          -77 44 -39 83 -34 callgsubr
          170 vlineto
          48 -12 25 0 vhcurveto
          47 hlineto
          54 40 -9 -41 hvcurveto
          -117 vlineto
          -136 93 -33 99 48 97 callsubr
          -1162 167 callsubr
          vlineto
          -91 callsubr
          283 vlineto
          endchar
        </CharString>
        <CharString name="dvG_R">
          67 callgsubr
          endchar
        </CharString>
        <CharString name="dvG_RA">
          56 callsubr
          endchar
        </CharString>
        <CharString name="dvG_R_YA">
          363 504 527 rmoveto
          8 callsubr
          131 -33 callgsubr
          -60 146 rmoveto
          57 callgsubr
          -5 vlineto
          -240 -249 rlineto
          69 hlineto
          105 109 36 38 24 26 14 18 rlinecurve
          -84 25 77 -22 81 120 callsubr
          98 46 -799 -46 155 -279 vlineto
          -40 -15 -33 -58 vhcurveto
          -7 -13 2 -8 hhcurveto
          -54 callsubr
          53 68 hvcurveto
          280 vlineto
          endchar
        </CharString>
        <CharString name="dvG_SA">
          462 614 11 -86 callsubr
          168 -294 -25 callsubr
          -898 37 callgsubr
          283 345 -70 callsubr
          -28 callsubr
        </CharString>
        <CharString name="dvG_VA">
          290 554 492 rmoveto
          188 callsubr
          -178 vlineto
          -50 callsubr
          -727 167 callsubr
          vlineto
          -91 callsubr
          283 369 vlineto
          -466 vmoveto
          -100 callgsubr
          endchar
        </CharString>
        <CharString name="dvG_YA">
          363 504 527 26 callgsubr
          -128 hlineto
          -68 callgsubr
          -799 167 callsubr
          vlineto
          -91 callsubr
          283 vlineto
          endchar
        </CharString>
        <CharString name="dvGx">
          -140 185 600 rmoveto
          89 46 -296 37 callgsubr
          -104 -280 rmoveto
          -64 callsubr
          endchar
        </CharString>
        <CharString name="dvGxA">
          85 101 31 rmoveto
          -64 callsubr
          399 615 rmoveto
          -521 37 callgsubr
          283 163 298 callsubr
          99 vlineto
          endchar
        </CharString>
        <CharString name="dvGx_R">
          67 callgsubr
          112 -423 rmoveto
          -64 callsubr
          endchar
        </CharString>
        <CharString name="dvGx_RA">
          56 callsubr
          114 -102 rmoveto
          -64 callsubr
          endchar
        </CharString>
        <CharString name="dvH">
          22 50 128 55 callsubr
          -458 109 callgsubr
          297 -393 -35 callsubr
          endchar
        </CharString>
        <CharString name="dvHA">
          22 50 128 55 callsubr
          -458 109 callgsubr
          endchar
        </CharString>
        <CharString name="dvHA_mU">
          22 275 -5 rmoveto
          58 6 -24 -38 -39 -5 -24 -63 hvcurveto
          -77 hlineto
          -24 -21 4 34 -35 hvcurveto
          -61 61 rlineto
          -72 hlineto
          99 -98 rlineto
          -39 38 38 -10 37 hhcurveto
          80 hlineto
          86 32 34 77 76 -31 34 -83 hvcurveto
          -61 hlineto
          -90 -24 37 48 -55 callgsubr
          -458 109 callgsubr
          -62 vlineto
          -81 50 -51 116 vhcurveto
          endchar
        </CharString>
        <CharString name="dvHA_mUU">
          21 49 127 rmoveto
          -55 24 -38 51 -19 vhcurveto
          -26 -15 -11 -24 -43 vvcurveto
          -75 29 -35 85 vhcurveto
          91 49 -90 hlineto
          -57 -7 23 38 38 6 24 61 hvcurveto
          28 hlineto
          54 18 -16 -40 33 hvcurveto
          93 -114 rlineto
          65 hlineto
          -130 158 rlineto
          38 -33 -29 22 -70 hhcurveto
          -18 hlineto
          173 callgsubr
          -70 -20 272 callgsubr
          -458 -46 308 -96 -94 hlineto
          -97 42 callsubr
          endchar
        </CharString>
        <CharString name="dvHA_mvR">
          61 102 202 rmoveto
          43 23 26 71 vhcurveto
          117 hlineto
          43 24 -6 -43 -43 -24 -5 -43 hvcurveto
          -6 hlineto
          -76 -42 -22 -73 -74 49 -22 86 37 42 6 9 35 hvcurveto
          46 vlineto
          -8 -37 -38 -5 -38 hhcurveto
          -56 -28 5 43 43 23 5 43 hvcurveto
          7 hlineto
          77 40 23 72 72 -40 24 -77 hvcurveto
          -119 hlineto
          -71 -19 25 43 hvcurveto
          1 vlineto
          43 16 26 71 vhcurveto
          188 144 96 46 -498 -46 350 -96 -136 hlineto
          -96 321 callsubr
          -2 vlineto
          -47 17 -29 36 -16 vhcurveto
          -37 -16 -19 -30 -46 vvcurveto
          -207 vlineto
          -82 61 -52 115 319 callsubr
          vhcurveto
          47 vlineto
          -12 -36 -33 -4 -53 hhcurveto
          -91 -34 34 54 hvcurveto
          endchar
        </CharString>
        <CharString name="dvH_LA">
          592 425 149 rmoveto
          -93 47 -56 112 24 18 2 3 16 vhcurveto
          -13 callgsubr
          -93 callgsubr
          -657 -46 506 -138 vlineto
          217 callgsubr
          endchar
        </CharString>
        <CharString name="dvH_MA">
          219 483 178 rmoveto
          -129 22 hlineto
          76 -37 39 -88 340 callgsubr
          17 27 70 vhcurveto
          149 143 133 hlineto
          -468 vmoveto
          -136 52 604 99 46 -656 -46 320 -96 -97 vlineto
          -96 321 callsubr
          -4 64 callsubr
          -30 -46 vvcurveto
          -76 vlineto
          -75 38 -56 114 vhcurveto
          47 vlineto
          -86 -13 42 41 hvcurveto
          77 vlineto
          43 23 26 72 vhcurveto
          21 hlineto
          66 10 -26 -43 hvcurveto
          -123 50 56 vlineto
          endchar
        </CharString>
        <CharString name="dvH_NA">
          540 414 363 rmoveto
          -57 -219 vlineto
          -71 -19 26 43 hvcurveto
          12 vlineto
          43 16 26 71 vhcurveto
          146 144 465 113 callgsubr
          389 67 rmoveto
          -430 -93 callgsubr
          -976 -46 308 -96 -94 vlineto
          93 callgsubr
          216 -81 108 callsubr
        </CharString>
        <CharString name="dvH_NNA">
          611 455 600 rmoveto
          -294 -260 vlineto
          -71 -19 26 43 hvcurveto
          12 vlineto
          43 16 26 71 vhcurveto
          146 144 hlineto
          394 hmoveto
          143 -600 -25 callsubr
          -1047 -46 308 -96 -94 hlineto
          93 callgsubr
          257 -12 hlineto
          47 callgsubr
          -52 353 rmoveto
          119 callgsubr
        </CharString>
        <CharString name="dvH_R">
          -8 callsubr
          309 -396 -35 callsubr
          endchar
        </CharString>
        <CharString name="dvH_RA">
          -8 callsubr
          endchar
        </CharString>
        <CharString name="dvH_VA">
          405 669 492 rmoveto
          188 callsubr
          -178 vlineto
          -50 callsubr
          -466 -46 315 vlineto
          -466 vmoveto
          -100 callgsubr
          endchar
        </CharString>
        <CharString name="dvH_YA">
          205 384 142 rmoveto
          -47 hlineto
          7 11 3 14 16 vvcurveto
          26 vlineto
          76 -38 39 -89 340 callgsubr
          16 27 71 vhcurveto
          150 134 126 -448 hlineto
          -5 -18 -30 -5 -36 hhcurveto
          -138 hmoveto
          -47 137 vlineto
          40 29 5 5 16 hvcurveto
          -108 53 603 98 46 -641 -46 311 -86 -97 vlineto
          -96 -43 -40 -77 hvcurveto
          -4 18 callgsubr
          -84 vlineto
          -75 38 -56 113 vhcurveto
          47 vlineto
          -85 -14 42 41 hvcurveto
          85 vlineto
          44 24 26 72 vhcurveto
          21 hlineto
          68 8 -26 -44 hvcurveto
          -28 vlineto
          -26 -12 -11 -37 vhcurveto
          endchar
        </CharString>
        <CharString name="dvI">
          2 103 171 rmoveto
          -50 -234 50 104 hlineto
          -6 26 31 -3 38 hhcurveto
          107 46 39 80 hvcurveto
          41 vlineto
          77 -46 41 -97 vhcurveto
          -22 hlineto
          -71 -19 28 43 hvcurveto
          6 234 callsubr
          136 144 94 46 -438 -46 292 -96 -84 hlineto
          -97 -45 -40 -77 hvcurveto
          -6 vlineto
          -77 46 -41 96 vhcurveto
          22 86 callgsubr
          -41 vlineto
          -46 -30 -25 -72 -38 -29 2 6 -27 vhcurveto
          endchar
        </CharString>
        <CharString name="dvII">
          2 317 646 rmoveto
          -16 33 -20 47 34 vvcurveto
          55 38 17 45 12 13 -1 -2 12 vhcurveto
          46 vlineto
          2 -13 -14 2 -18 hhcurveto
          -66 -62 -31 -86 -42 18 -41 18 -33 26 callsubr
        </CharString>
        <CharString name="dvII_Anusvara">
          2 382 708 rmoveto
          25 10 14 20 20 -10 15 -25 -26 -9 -15 -20 -20 9 -14 26 hvcurveto
          -65 -62 rmoveto
          -17 33 -20 49 35 vvcurveto
          56 39 18 45 12 13 -1 -2 12 vhcurveto
          46 vlineto
          1 -13 -14 3 -17 hhcurveto
          -68 -62 -32 -87 -42 18 -43 19 -34 26 callsubr
        </CharString>
        <CharString name="dvJ">
          -56 422 646 rmoveto
          -444 -46 444 hlineto
          1 -120 rmoveto
          -325 -99 callgsubr
          160 hlineto
          endchar
        </CharString>
        <CharString name="dvJA">
          151 271 361 72 callsubr
        </CharString>
        <CharString name="dvJH">
          -2 337 141 rmoveto
          259 callgsubr
          181 46 -297 hlineto
          129 callgsubr
          150 46 -509 -46 307 -95 -91 hlineto
          15 callgsubr
          89 vlineto
          190 callgsubr
          endchar
        </CharString>
        <CharString name="dvJHA">
          200 197 263 13 callsubr
          -636 -46 300 -95 -85 hlineto
          -96 -46 -40 -77 hvcurveto
          159 callgsubr
        </CharString>
        <CharString name="dvJH_MA">
          583 449 314 rmoveto
          -4 -259 vlineto
          129 callgsubr
          321 285 callgsubr
          209 -136 144 callgsubr
          -1020 -46 307 -95 -91 hlineto
          15 callgsubr
          89 vlineto
          190 callgsubr
          259 callgsubr
          143 -86 265 callgsubr
        </CharString>
        <CharString name="dvJH_NA">
          589 464 363 rmoveto
          -53 -274 vlineto
          129 callgsubr
          516 113 callgsubr
          389 67 rmoveto
          -430 -93 callgsubr
          -1026 -46 307 -95 -91 vlineto
          15 callgsubr
          89 vlineto
          190 callgsubr
          259 callgsubr
          158 -86 108 callsubr
        </CharString>
        <CharString name="dvJH_R">
          39 521 190 rmoveto
          -261 -278 rlineto
          62 hlineto
          113 119 38 40 46 60 2 3 rlinecurve
          -180 57 rmoveto
          35 -11 24 -21 14 vhcurveto
          212 46 -325 hlineto
          -69 -18 28 43 hvcurveto
          291 callsubr
          178 143 143 46 -542 -46 346 -95 -125 hlineto
          -97 -45 -40 -77 hvcurveto
          -7 vlineto
          -78 44 -40 95 vhcurveto
          5 hlineto
          69 19 -29 -42 hvcurveto
          -50 177 callsubr
          endchar
        </CharString>
        <CharString name="dvJH_RA">
          230 341 191 rmoveto
          35 -11 24 -21 14 vhcurveto
          182 -105 hlineto
          -231 -247 rlineto
          62 hlineto
          113 119 38 40 23 36 1 4 rlinecurve
          1 -1 rlineto
          -1 -5 -3 -21 -28 vvcurveto
          -57 51 601 99 46 -666 -46 346 -95 -125 vlineto
          -97 -45 -40 -77 hvcurveto
          -7 vlineto
          -78 46 -40 95 vhcurveto
          3 hlineto
          69 19 -29 -42 hvcurveto
          -48 177 callsubr
          36 314 rmoveto
          143 116 -290 -297 vlineto
          -69 173 callsubr
          endchar
        </CharString>
        <CharString name="dvJH_YA">
          514 472 382 rmoveto
          -72 -282 vlineto
          129 callgsubr
          259 hlineto
          -32 callsubr
          -60 181 callgsubr
          164 145 -103 callsubr
          -547 -422 rmoveto
          190 callgsubr
          259 callgsubr
          166 -10 hlineto
          -68 callgsubr
          -951 -46 307 -95 -91 vlineto
          15 callgsubr
          vlineto
          endchar
        </CharString>
        <CharString name="dvJ_BA">
          368 635 190 callsubr
          -43 -34 -9 -16 -25 hvcurveto
          -347 -99 callgsubr
          144 hlineto
          -7 -15 -3 -18 -20 vvcurveto
          -184 vlineto
          58 callgsubr
          -804 -46 657 vlineto
          -87 -480 rmoveto
          -41 callsubr
        </CharString>
        <CharString name="dvJ_DA">
          358 397 204 rmoveto
          -77 callsubr
          -794 -46 643 -97 -81 hlineto
          -42 -33 -8 -15 -23 hvcurveto
          -344 -47 112 hlineto
          0 8 -26 -46 vvcurveto
          -189 -95 callgsubr
          190 -49 callgsubr
          142 hlineto
          -5 -15 -3 -17 -19 vvcurveto
          endchar
        </CharString>
        <CharString name="dvJ_DDA">
          352 692 -14 callsubr
          -788 -46 633 -95 -79 hlineto
          -45 -33 -8 -17 -24 hvcurveto
          -332 -99 callgsubr
          133 hlineto
          -5 -13 -2 -16 -17 vvcurveto
          -9 callgsubr
        </CharString>
        <CharString name="dvJ_JA">
          514 634 361 15 callsubr
        </CharString>
        <CharString name="dvJ_JHA">
          534 531 263 13 callsubr
          -970 -46 634 -95 -85 hlineto
          -44 -34 -8 -17 -23 hvcurveto
          -328 -99 callgsubr
          129 hlineto
          -5 -13 -2 -16 -17 vvcurveto
          159 callgsubr
        </CharString>
        <CharString name="dvJ_J_NYA">
          571 423 480 rmoveto
          -325 -99 callgsubr
          160 hlineto
          411 166 rmoveto
          -120 -326 -46 120 vlineto
          -20 callgsubr
          153 -434 -47 callsubr
          -1007 -46 hlineto
          endchar
        </CharString>
        <CharString name="dvJ_J_VA">
          740 1004 136 callsubr
          -41 -32 -9 -16 -24 hvcurveto
          -712 31 callsubr
          146 hlineto
          -7 -16 -4 -19 -21 vvcurveto
          -178 vlineto
          -50 callsubr
          -1177 -46 1026 vlineto
          -466 vmoveto
          -100 callgsubr
          endchar
        </CharString>
        <CharString name="dvJ_J_YA">
          812 953 -60 callgsubr
          -53 -21 -17 -64 -3 vhcurveto
          69 -39 28 -86 vhcurveto
          -593 31 callsubr
          61 hlineto
          68 15 -11 -49 hvcurveto
          -120 vlineto
          -68 callgsubr
          -1248 -46 vlineto
          endchar
        </CharString>
        <CharString name="dvJ_KA">
          529 613 143 callgsubr
          -40 -32 -8 -16 -23 hvcurveto
          -343 -99 callgsubr
          142 hlineto
          -5 -15 -3 -16 -19 vvcurveto
          -193 -81 callsubr
          -966 -46 vlineto
          endchar
        </CharString>
        <CharString name="dvJ_MA">
          516 643 171 callsubr
          -189 -250 -94 callsubr
          189 -382 rmoveto
          -93 callgsubr
          -953 -46 613 252 callgsubr
          -17 -15 -1 -3 -13 hvcurveto
          39 -14 -45 17 -67 hhcurveto
          -244 -99 callgsubr
          73 hlineto
          47 28 -7 -20 11 hvcurveto
          -28 -18 -12 -31 -44 244 callsubr
        </CharString>
        <CharString name="dvJ_NA">
          536 800 430 rmoveto
          -430 -93 callgsubr
          -973 -46 822 237 callsubr
          -46 -34 -11 -23 -21 hvcurveto
          24 -19 -36 13 -50 hhcurveto
          -234 -99 callgsubr
          68 hlineto
          54 22 -17 -30 6 hvcurveto
          -1 -7 -1 -8 -9 -26 callsubr
        </CharString>
        <CharString name="dvJ_NY">
          -7 488 646 rmoveto
          -510 -46 510 hlineto
          -120 vmoveto
          -346 -46 120 hlineto
          -20 callgsubr
          173 hlineto
          endchar
        </CharString>
        <CharString name="dvJ_NYA">
          205 468 600 rmoveto
          -120 -326 -46 120 vlineto
          -20 callgsubr
          153 -434 -47 callsubr
          -641 -46 hlineto
          endchar
        </CharString>
        <CharString name="dvJ_NY_YA">
          502 262 434 rmoveto
          -20 callgsubr
          62 hlineto
          57 25 -6 -48 hvcurveto
          -126 vlineto
          -136 79 -33 99 72 38 18 26 19 vhcurveto
          -129 -93 callgsubr
          -939 -46 533 vlineto
          63 17 -29 -44 hvcurveto
          -52 vlineto
          -53 -21 -17 -64 -3 vhcurveto
          65 -63 13 -61 vhcurveto
          -240 -46 hlineto
          369 -178 rmoveto
          346 callsubr
          54 vlineto
          42 -13 22 -17 9 vhcurveto
          153 -349 hlineto
          -80 -2 -30 -37 -96 hhcurveto
          -98 -29 39 83 hvcurveto
          endchar
        </CharString>
        <CharString name="dvJ_R">
          -55 133 37 callsubr
          endchar
        </CharString>
        <CharString name="dvJ_RA">
          154 420 34 callsubr
          endchar
        </CharString>
        <CharString name="dvJ_TA">
          389 407 118 rmoveto
          -69 callsubr
          -825 -46 674 138 callgsubr
          -41 -33 -8 -16 -24 hvcurveto
          -359 -99 callgsubr
          155 hlineto
          -7 -16 -4 -19 -21 vvcurveto
          endchar
        </CharString>
        <CharString name="dvJ_TTA">
          344 458 303 callsubr
          -779 -46 637 -97 -65 hlineto
          -42 -32 -8 -15 -23 hvcurveto
          -355 -99 callgsubr
          152 hlineto
          -6 -15 -3 -17 -20 178 callsubr
        </CharString>
        <CharString name="dvJ_VA">
          377 641 136 callsubr
          -41 -32 -9 -16 -24 hvcurveto
          -349 -99 callgsubr
          145 hlineto
          -7 -16 -4 -19 -21 vvcurveto
          -178 vlineto
          -50 callsubr
          -814 -46 663 vlineto
          -466 vmoveto
          -100 callgsubr
          endchar
        </CharString>
        <CharString name="dvJ_YA">
          449 590 527 228 callsubr
          346 callsubr
          -59 127 48 callgsubr
          -52 vlineto
          -53 -22 -17 -63 -3 vhcurveto
          64 -63 14 -62 vhcurveto
          -231 -99 callgsubr
          60 hlineto
          57 26 -5 -49 hvcurveto
          -126 vlineto
          78 callsubr
          -886 -46 vlineto
          endchar
        </CharString>
        <CharString name="dvJx">
          -56 80 -100 rmoveto
          26 261 callsubr
          -9 15 -27 -27 -9 -15 -21 -21 9 -15 27 hvcurveto
          342 746 rmoveto
          -444 -46 444 hlineto
          1 -120 rmoveto
          -325 -99 callgsubr
          160 hlineto
          endchar
        </CharString>
        <CharString name="dvJxA">
          151 34 -81 359 callgsubr
          20 21 -10 16 -26 -27 182 callsubr
          237 442 72 callsubr
        </CharString>
        <CharString name="dvJx_JxA">
          514 27 1 rmoveto
          -26 -10 -15 -21 -21 10 -15 26 27 167 callgsubr
          -27 hvcurveto
          364 -72 rmoveto
          27 9 15 21 21 -9 15 -27 -26 -10 -15 -21 -21 9 -15 27 hvcurveto
          243 432 15 callsubr
        </CharString>
        <CharString name="dvJx_R">
          -23 151 37 callsubr
          -412 -454 rmoveto
          -64 callsubr
          endchar
        </CharString>
        <CharString name="dvJx_RA">
          172 438 34 callsubr
          -246 -446 rmoveto
          -64 callsubr
          endchar
        </CharString>
        <CharString name="dvJx_YA">
          449 27 -80 69 callgsubr
          563 607 228 callsubr
          346 callsubr
          -59 127 48 callgsubr
          -52 vlineto
          -53 -22 -17 -63 -3 vhcurveto
          64 -63 14 -62 vhcurveto
          -231 -47 112 hlineto
          -73 callsubr
          -188 vlineto
          -48 -25 -33 -70 -37 -28 5 7 -28 vhcurveto
          -49 vlineto
          -7 25 24 -5 44 hhcurveto
          98 50 49 81 hvcurveto
          189 65 callgsubr
          60 hlineto
          57 26 -5 -49 hvcurveto
          -126 vlineto
          78 callsubr
          -886 -46 vlineto
          endchar
        </CharString>
        <CharString name="dvK">
          4 316 447 rmoveto
          -37 callgsubr
          471 -286 46 562 -46 -224 -106 vlineto
          6 20 32 4 27 hhcurveto
          102 27 -50 -71 hvcurveto
          -25 -51 25 vlineto
          44 -11 29 -68 -25 -29 -2 -7 -24 vhcurveto
          endchar
        </CharString>
        <CharString name="dvKA">
          181 264 600 -7 callgsubr
        </CharString>
        <CharString name="dvKH">
          123 427 251 -22 callsubr
        </CharString>
        <CharString name="dvKHA">
          327 376 251 43 callgsubr
          -763 -46 272 vlineto
          -102 callgsubr
          289 -106 hlineto
          5 -26 -29 4 -28 hhcurveto
          -93 -39 -43 -77 hvcurveto
          215 320 callsubr
          22 callgsubr
          32 357 callsubr
          endchar
        </CharString>
        <CharString name="dvKH_KHA">
          869 36 callsubr
          706 -62 rmoveto
          -6 -15 -32 -4 -34 hhcurveto
          -68 157 callgsubr
          43 15 29 68 31 357 callsubr
          -215 -195 rmoveto
          -77 40 -43 93 34 24 4 6 24 vhcurveto
          -141 -93 callgsubr
          -1306 -46 272 vlineto
          -102 callgsubr
          491 hlineto
          255 callgsubr
          64 vlineto
          77 -41 43 222 callgsubr
          35 28 5 10 21 vhcurveto
          -112 13 94 -38 117 hhcurveto
          54 53 8 7 34 hvcurveto
          51 vlineto
          -8 -30 -49 -9 -62 hhcurveto
          -103 -71 33 96 hvcurveto
          97 vlineto
          -4 18 23 136 callgsubr
          -13 -29 callgsubr
          289 -106 hlineto
          5 -26 -29 4 -28 hhcurveto
          -92 -40 -43 -77 hvcurveto
          endchar
        </CharString>
        <CharString name="dvKH_MA">
          724 800 178 rmoveto
          -43 -12 -90 callgsubr
          79 hlineto
          51 46 rmoveto
          172 137 61 callsubr
          -1161 -46 272 hlineto
          -102 callgsubr
          498 -172 -79 hlineto
          -34 -27 -5 -10 -20 hvcurveto
          58 -10 -41 32 -80 hhcurveto
          46 callgsubr
          36 28 5 11 20 vhcurveto
          -56 10 38 -29 80 155 callsubr
          -561 -131 -68 callsubr
          endchar
        </CharString>
        <CharString name="dvKH_NA">
          716 427 251 rmoveto
          132 vlineto
          44 15 28 67 68 14 -28 -44 vhcurveto
          -1 vlineto
          -1 -6 0 -6 -7 vvcurveto
          -130 vlineto
          -33 -4 -19 -21 -58 hhcurveto
          -67 -15 29 43 hvcurveto
          552 179 rmoveto
          -430 -93 callgsubr
          -1152 -46 272 vlineto
          -102 callgsubr
          677 226 callgsubr
          hlineto
          -39 -31 -8 -17 -21 hvcurveto
          33 -19 -38 18 -60 hhcurveto
          46 callgsubr
          35 28 5 11 21 vhcurveto
          -56 11 42 -29 71 -65 callsubr
        </CharString>
        <CharString name="dvKH_R">
          125 -29 callsubr
          endchar
        </CharString>
        <CharString name="dvKH_RA">
          327 -31 callgsubr
          endchar
        </CharString>
        <CharString name="dvKH_SHA">
          721 427 251 rmoveto
          91 vlineto
          43 15 29 67 68 14 -29 -43 vhcurveto
          -91 103 callgsubr
          237 46 -561 20 callsubr
          -22 -29 3 9 -40 vhcurveto
          24 269 callgsubr
          -91 148 callgsubr
          135 vlineto
          -9 25 31 -6 35 hhcurveto
          97 45 47 77 hvcurveto
          endchar
        </CharString>
</ttFont>
